<?xml version="1.0" standalone="no"?>
<!DOCTYPE svg PUBLIC "-//W3C//DTD SVG 20010904//EN"
 "http://www.w3.org/TR/2001/REC-SVG-20010904/DTD/svg10.dtd">
<svg version="1.0" xmlns="http://www.w3.org/2000/svg"
 width="862.000000pt" height="360.000000pt" viewBox="0 0 862.000000 360.000000"
 preserveAspectRatio="xMidYMid meet">

<g transform="translate(0.000000,360.000000) scale(0.100000,-0.100000)"
fill="#000000" stroke="none">
<path d="M2760 1840 l0 -1080 1835 0 1835 0 0 1080 0 1080 -1835 0 -1835 0 0
-1080z m3570 0 l0 -980 -1735 0 -1735 0 0 980 0 980 1735 0 1735 0 0 -980z"/>
<path d="M4415 2614 c-22 -2 -83 -9 -135 -15 -447 -51 -825 -208 -1034 -429
-218 -233 -218 -497 0 -730 208 -221 555 -365 1034 -431 125 -17 525 -17 650
0 479 66 826 210 1034 431 218 233 218 497 0 730 -203 215 -541 359 -994 425
-100 15 -471 27 -555 19z m415 -104 c606 -54 1076 -293 1179 -598 12 -34 21
-82 21 -107 0 -60 -33 -156 -76 -220 -219 -331 -912 -544 -1574 -485 -606 54
-1076 293 -1179 598 -27 78 -27 136 0 214 131 391 878 665 1629 598z"/>
<path d="M3979 2101 c-69 -21 -99 -60 -120 -153 -18 -82 0 -205 38 -257 46
-64 155 -79 217 -30 58 45 83 153 65 270 -15 99 -49 150 -113 167 -51 13 -51
13 -87 3z m83 -111 c21 -42 25 -185 6 -237 -21 -59 -76 -56 -98 5 -18 50 -15
193 4 231 27 52 63 52 88 1z"/>
<path d="M5005 2098 c-41 -14 -63 -35 -89 -83 -18 -34 -21 -56 -21 -155 1
-113 2 -116 33 -161 25 -38 40 -49 76 -58 25 -6 54 -11 66 -11 40 0 95 37 120
81 23 41 25 54 24 165 -1 117 -2 122 -30 162 -20 29 -42 46 -73 57 -51 17 -64
18 -106 3z m71 -76 c54 -36 56 -274 2 -303 -58 -31 -96 53 -84 183 8 87 28
128 61 128 6 0 15 -4 21 -8z"/>
<path d="M4545 1993 c-3 -60 -7 -116 -8 -127 -2 -16 6 -19 65 -20 79 -2 108
-21 108 -71 0 -49 -28 -68 -92 -63 -29 2 -61 8 -70 12 -16 7 -18 3 -18 -33 0
-36 4 -43 28 -52 15 -6 57 -9 93 -7 54 3 73 9 104 32 46 35 69 87 62 139 -10
75 -55 113 -143 120 -37 4 -49 8 -48 21 0 9 1 30 2 46 l2 30 85 0 85 0 0 40 0
40 -124 0 -124 0 -7 -107z"/>
<path d="M4260 1815 l0 -35 85 0 85 0 0 35 0 35 -85 0 -85 0 0 -35z"/>
</g>
</svg>
