<?xml version="1.0" standalone="no"?>
<!DOCTYPE svg PUBLIC "-//W3C//DTD SVG 20010904//EN"
 "http://www.w3.org/TR/2001/REC-SVG-20010904/DTD/svg10.dtd">
<svg version="1.0" xmlns="http://www.w3.org/2000/svg"
 width="862.000000pt" height="360.000000pt" viewBox="0 0 862.000000 360.000000"
 preserveAspectRatio="xMidYMid meet">

<g transform="translate(0.000000,360.000000) scale(0.100000,-0.100000)"
fill="#000000" stroke="none">
<path d="M2560 1905 l0 -1015 1795 0 1795 0 0 1015 0 1015 -1795 0 -1795 0 0
-1015z m3490 0 l0 -915 -1695 0 -1695 0 0 915 0 915 1695 0 1695 0 0 -915z"/>
<path d="M4135 2614 c-485 -50 -819 -182 -1030 -406 -218 -232 -218 -494 0
-726 186 -197 477 -327 875 -388 160 -25 500 -25 660 0 559 86 940 326 1025
646 80 299 -194 619 -660 772 -208 68 -394 97 -645 102 -102 2 -203 2 -225 0z
m376 -104 c545 -53 961 -275 1051 -563 43 -139 1 -271 -129 -409 -149 -155
-433 -283 -753 -337 -720 -122 -1495 137 -1622 542 -23 74 -23 130 0 204 115
368 785 628 1453 563z"/>
<path d="M3740 2110 c-20 -5 -49 -24 -67 -43 -102 -112 -72 -380 46 -416 156
-46 249 75 220 287 -13 96 -45 148 -101 163 -22 5 -45 12 -51 14 -7 1 -28 -1
-47 -5z m60 -80 c27 -14 40 -64 40 -153 0 -92 -14 -141 -45 -155 -48 -22 -76
34 -76 153 0 86 11 130 39 151 21 16 19 16 42 4z"/>
<path d="M4415 2099 c-16 -11 -47 -27 -67 -36 -35 -14 -38 -19 -38 -54 0 -44
14 -50 64 -24 15 8 30 15 32 15 2 0 4 -81 4 -180 l0 -180 50 0 50 0 0 240 0
240 -32 -1 c-18 0 -46 -9 -63 -20z"/>
<path d="M4783 2110 c-49 -11 -80 -36 -105 -83 -20 -37 -23 -56 -23 -159 1
-115 2 -118 32 -160 33 -47 74 -67 138 -67 53 -1 99 28 127 81 20 38 23 57 23
159 -1 110 -2 118 -30 162 -23 37 -39 50 -68 58 -21 5 -44 12 -50 14 -7 1 -27
-1 -44 -5z m61 -89 c28 -31 42 -138 28 -213 -28 -150 -120 -108 -121 55 -1 77
17 144 42 162 27 19 30 19 51 -4z"/>
<path d="M5162 2110 c-51 -12 -100 -66 -119 -129 -12 -42 -14 -76 -9 -141 11
-139 60 -197 171 -199 114 -2 178 121 154 297 -13 96 -45 148 -101 163 -22 5
-45 12 -51 14 -7 1 -27 -1 -45 -5z m60 -82 c49 -40 52 -268 4 -300 -6 -4 -21
-8 -33 -8 -38 0 -56 50 -55 156 0 108 19 157 63 163 3 1 12 -5 21 -11z"/>
<path d="M3270 2072 c0 -22 -3 -80 -6 -130 l-7 -91 65 1 c72 0 104 -14 113
-50 9 -35 -3 -60 -37 -78 -31 -16 -93 -12 -130 8 -16 8 -18 3 -18 -35 0 -52 8
-57 110 -57 78 0 125 21 158 70 20 29 23 44 20 93 -4 49 -9 63 -36 89 -26 27
-40 32 -92 36 l-61 4 3 47 3 46 83 3 82 3 0 39 0 40 -125 0 -125 0 0 -38z"/>
<path d="M4020 1825 l0 -35 85 0 85 0 0 35 0 35 -85 0 -85 0 0 -35z"/>
</g>
</svg>
