<?xml version="1.0" standalone="no"?>
<!DOCTYPE svg PUBLIC "-//W3C//DTD SVG 20010904//EN"
 "http://www.w3.org/TR/2001/REC-SVG-20010904/DTD/svg10.dtd">
<svg version="1.0" xmlns="http://www.w3.org/2000/svg"
 width="626.000000pt" height="811.000000pt" viewBox="0 0 626.000000 811.000000"
 preserveAspectRatio="xMidYMid meet">

<g transform="translate(0.000000,811.000000) scale(0.100000,-0.100000)"
fill="#000000" stroke="none">
<path d="M295 8096 c-82 -21 -122 -42 -178 -95 -96 -90 -133 -211 -103 -329
15 -59 71 -162 88 -162 5 0 8 -16 8 -36 0 -29 8 -44 38 -73 21 -20 50 -44 65
-53 35 -24 67 -113 67 -187 0 -71 12 -108 61 -186 26 -43 39 -77 44 -117 5
-41 12 -58 22 -58 12 0 14 9 8 49 -7 48 -6 49 17 44 19 -5 14 2 -22 38 -61 59
-100 140 -100 205 0 58 -24 157 -45 187 -21 30 -19 37 13 38 l27 1 -25 8 c-21
7 -21 8 -5 9 11 0 27 -3 34 -8 12 -8 9 -11 -12 -16 l-27 -7 22 -30 c17 -24 23
-53 29 -134 10 -124 33 -177 107 -246 50 -47 54 -58 20 -58 -13 0 -18 -8 -18
-30 0 -33 22 -50 68 -50 16 0 51 -11 77 -25 l48 -26 -6 54 c-4 30 -18 97 -31
149 l-25 94 25 80 c24 73 25 84 15 148 -11 65 -10 70 9 83 70 49 133 157 129
220 -1 21 4 65 11 98 42 196 -91 386 -299 425 -66 12 -92 12 -156 -4z m180
-21 c146 -38 251 -158 262 -300 5 -61 -10 -145 -27 -145 -5 0 -44 -24 -88 -54
-122 -84 -203 -101 -332 -70 -36 8 -89 14 -119 12 l-54 -3 -33 49 c-116 167
-58 388 126 481 91 46 168 55 265 30z m-170 -601 l60 -14 -52 5 c-29 3 -75 8
-103 11 -56 7 -70 -6 -50 -48 11 -22 10 -22 -4 -4 -23 28 -20 55 7 65 23 9 42
7 142 -15z m-77 -84 c22 -7 23 -8 6 -9 -11 -1 -29 6 -40 15 -10 8 -13 12 -6 9
8 -4 26 -11 40 -15z"/>
<path d="M4706 7654 c-221 -40 -446 -151 -705 -349 -186 -142 -377 -329 -449
-442 -15 -24 -33 -43 -39 -43 -24 0 -89 -69 -127 -134 -24 -41 -47 -68 -60
-71 -12 -3 -84 -20 -161 -39 -190 -46 -321 -60 -485 -52 -74 3 -158 9 -187 12
-102 11 -153 -28 -153 -116 0 -136 138 -327 357 -496 48 -37 92 -71 98 -76 6
-5 3 -19 -8 -38 -10 -17 -15 -30 -10 -30 12 0 78 109 75 123 -2 7 0 9 3 5 15
-15 154 230 184 325 11 34 16 37 48 37 l36 0 -7 -55 c-7 -64 -44 -166 -85
-239 -16 -28 -29 -53 -29 -56 1 -3 -16 -23 -38 -45 -60 -60 -109 -124 -137
-180 -14 -27 -39 -62 -56 -78 -62 -58 -94 -220 -56 -294 9 -18 32 -42 51 -53
l34 -22 -19 -31 c-42 -68 -113 -219 -106 -225 4 -4 10 -1 12 5 9 25 92 189
110 216 16 25 25 29 74 32 30 2 72 10 92 19 38 15 38 15 48 -12 6 -14 9 -63 8
-107 -4 -157 -4 -157 16 -171 47 -34 139 -1 206 74 23 26 48 62 55 80 14 32
15 32 82 32 76 0 134 13 157 36 8 9 15 12 15 9 0 -13 76 54 90 79 8 17 42 40
95 66 138 66 233 191 281 367 8 32 18 118 21 191 l6 132 56 -31 c31 -18 111
-66 179 -108 112 -69 122 -78 118 -101 -3 -14 -8 -88 -12 -165 -5 -133 6 -331
37 -640 6 -60 9 -153 6 -205 -6 -99 -24 -200 -35 -200 -4 0 -19 20 -35 44 -53
84 -163 165 -224 166 -30 0 -29 8 11 88 52 104 77 195 81 297 1 50 1 74 -1 55
-20 -195 -56 -289 -204 -545 -83 -143 -175 -342 -209 -450 -95 -307 -130 -722
-96 -1158 20 -263 17 -542 -9 -679 -52 -284 -194 -542 -370 -677 -72 -55 -178
-108 -236 -118 -67 -12 -218 -5 -279 12 -124 36 -186 129 -163 244 20 93 51
121 135 121 l41 0 -37 -38 c-39 -40 -55 -89 -43 -135 6 -27 53 -77 70 -77 6 0
2 7 -8 15 -25 19 -18 25 34 31 61 7 146 51 181 93 49 60 62 125 56 281 -11
292 -98 583 -286 958 -139 278 -200 452 -242 687 -20 112 -23 164 -24 375 0
210 3 262 22 367 25 138 63 279 98 366 21 51 23 61 11 80 -28 44 -39 131 -33
273 6 164 31 266 101 411 25 51 41 93 36 93 -13 0 -84 -154 -110 -236 -11 -38
-27 -106 -35 -153 -9 -46 -17 -86 -19 -88 -2 -3 -37 12 -77 33 -41 20 -157 72
-258 115 -217 93 -314 155 -515 327 -116 100 -146 132 -185 196 -100 165 -222
296 -317 337 -22 10 -57 34 -77 53 -48 45 -98 62 -138 46 -16 -7 -29 -16 -29
-21 0 -13 18 -20 25 -9 10 16 58 11 92 -10 94 -57 172 -264 214 -570 l18 -135
-5 105 c-10 187 -47 360 -109 504 -8 19 -8 19 25 0 58 -33 155 -130 219 -221
97 -137 146 -251 211 -493 16 -58 29 -97 29 -86 1 24 -44 223 -68 304 -18 58
-18 63 -3 50 9 -8 53 -46 97 -84 185 -161 270 -215 465 -298 226 -97 390 -178
390 -194 0 -8 -6 -12 -12 -9 -7 3 -67 26 -133 52 -394 153 -527 225 -679 366
l-79 74 7 -35 c27 -128 46 -353 29 -335 -6 6 -34 82 -63 170 -59 179 -128 342
-188 443 -43 72 -166 222 -182 222 -12 0 -13 7 11 -70 42 -133 61 -369 41
-500 -7 -45 -7 -44 -20 40 -47 313 -69 404 -122 515 -41 86 -44 90 -107 149
-44 41 -52 31 -15 -21 33 -46 60 -165 68 -298 l7 -117 -32 17 c-18 9 -61 40
-96 70 -35 30 -67 55 -70 55 -3 0 -5 -22 -5 -49 0 -67 -27 -320 -51 -476 -25
-167 -38 -368 -34 -509 l4 -111 -15 80 c-22 120 -13 351 25 618 35 245 51 500
32 511 -6 4 -11 6 -11 4 -1 -2 -5 -75 -10 -163 -5 -88 -23 -257 -39 -375 -53
-376 -52 -490 5 -750 97 -439 230 -810 319 -888 20 -18 39 -32 44 -32 19 0 64
45 103 103 94 139 215 229 393 293 118 42 228 61 405 69 130 6 282 19 345 31
l30 5 1 -193 c0 -194 13 -333 41 -463 19 -88 21 -63 -16 -260 -33 -182 -83
-527 -156 -1090 -127 -971 -181 -1305 -271 -1669 -65 -262 -81 -373 -57 -397
8 -8 81 -17 195 -25 280 -19 366 -36 688 -134 245 -74 413 -115 550 -135 312
-43 625 -24 929 56 494 130 1075 535 1241 863 17 33 30 65 30 72 0 6 -78 92
-173 191 -211 218 -324 349 -443 513 -375 518 -612 988 -733 1453 -45 175 -45
178 12 72 84 -158 155 -259 347 -490 224 -270 284 -357 336 -490 15 -38 33
-76 40 -84 31 -33 72 132 135 534 17 110 49 281 71 380 90 406 128 717 109
887 -13 112 -30 198 -39 198 -4 0 -18 -33 -31 -72 -38 -120 -125 -287 -181
-350 -29 -32 -56 -58 -62 -58 -15 0 -4 467 13 545 9 40 27 79 56 122 l44 62
-26 7 c-98 25 -194 -77 -220 -235 -4 -26 -21 -62 -42 -89 -37 -49 -99 -166
-128 -245 l-18 -48 -44 78 c-72 126 -136 258 -202 417 -34 82 -73 171 -86 197
-23 45 -24 50 -10 96 28 92 37 246 23 389 l-13 131 190 6 c313 10 478 52 567
142 66 67 75 153 23 221 -15 19 -70 64 -123 99 -114 74 -221 173 -429 392
l-150 159 19 75 c11 44 17 90 14 114 -3 22 -6 45 -7 50 0 6 24 107 54 225 47
181 149 496 204 628 l14 35 31 -59 c112 -215 200 -309 322 -344 117 -32 126
18 30 165 -60 91 -75 185 -64 395 5 88 -10 118 -68 145 -20 10 -52 29 -71 43
-71 53 -134 61 -275 36z m217 -30 c18 -10 46 -27 62 -39 17 -13 40 -26 51 -29
24 -7 60 -43 52 -52 -3 -3 -53 20 -111 50 -93 49 -113 56 -164 56 -172 0 -483
-137 -728 -320 -113 -85 -326 -288 -411 -391 -46 -57 -61 -69 -86 -69 l-29 0
33 47 c50 72 260 279 373 369 265 210 505 335 725 379 95 19 194 18 233 -1z
m-1131 -838 c97 -13 303 -89 353 -130 11 -9 -11 -2 -50 15 -167 74 -341 116
-477 114 -49 -1 -88 2 -88 7 0 8 190 4 262 -6z m-272 -5 c0 -5 -11 -16 -24
-24 -13 -9 -40 -41 -61 -72 -20 -31 -39 -54 -42 -51 -7 6 11 34 66 104 39 48
61 64 61 43z m245 -192 c78 -19 239 -78 232 -85 -2 -2 -30 5 -62 16 -32 11
-108 30 -169 41 -94 18 -134 21 -261 16 -127 -4 -171 -10 -290 -40 -201 -51
-296 -67 -413 -69 -118 -3 -118 -2 7 -73 38 -22 68 -41 66 -43 -5 -5 -146 64
-203 101 l-54 34 144 7 c184 8 246 18 453 67 256 62 380 68 550 28z m-1255
-79 c22 -7 21 -8 -13 -9 -120 -3 -134 -78 -51 -261 44 -96 9 -57 -42 48 -39
79 -50 166 -25 196 24 28 85 41 131 26z m728 -269 c2 -7 10 -8 21 -2 10 6 45
6 86 1 57 -7 74 -14 92 -35 30 -34 29 -49 -4 -96 -32 -44 -41 -47 -73 -19 -12
11 -38 22 -56 26 -41 7 -104 -3 -104 -17 0 -6 -4 -7 -10 -4 -5 3 -19 1 -30 -5
-15 -8 -20 -8 -20 1 0 15 56 103 76 119 7 7 14 17 14 23 0 17 -59 -44 -85 -88
-29 -51 -42 -95 -26 -95 6 0 11 5 11 12 0 6 3 9 6 5 3 -3 26 3 51 14 65 28
131 25 165 -6 15 -14 34 -25 42 -25 16 0 63 57 59 71 -2 5 1 9 6 9 17 0 20 45
5 67 -14 22 -13 23 10 23 21 0 177 -29 183 -34 1 -1 -4 -24 -12 -51 -24 -77
-22 -82 48 -113 76 -35 138 -100 164 -171 10 -28 22 -50 27 -48 6 2 21 25 34
51 18 36 24 66 25 120 1 39 -2 81 -5 94 -8 27 -7 27 42 2 36 -18 39 -23 42
-67 5 -76 -9 -222 -27 -293 -41 -158 -134 -285 -251 -340 -35 -16 -66 -30 -68
-30 -3 0 0 15 5 33 10 34 4 113 -12 137 -7 12 -9 12 -9 -4 0 -30 -43 -97 -72
-112 -43 -22 -59 -17 -143 41 -43 30 -91 57 -108 61 -41 9 -114 -4 -121 -22
-5 -12 -2 -12 16 -3 30 16 102 13 140 -7 18 -9 57 -35 86 -57 48 -36 56 -39
99 -34 40 4 53 12 80 44 l33 38 0 -31 c1 -160 -176 -281 -356 -244 -79 16 -99
28 -171 97 l-60 58 -74 -34 c-62 -30 -85 -35 -146 -36 -68 0 -73 2 -107 34
-46 44 -55 97 -32 189 17 71 36 104 79 136 34 25 43 16 23 -23 -34 -66 -12
-101 65 -101 31 0 48 4 44 10 -3 6 -28 10 -55 10 -27 0 -52 5 -55 11 -11 18 4
57 36 94 l31 35 -31 0 c-17 0 -31 4 -31 8 0 16 64 108 120 172 65 74 145 204
135 220 -3 5 -2 10 3 10 10 0 25 47 42 134 l12 58 46 -5 c26 -3 48 -10 50 -16z
m534 -87 c111 -35 133 -47 148 -84 16 -39 9 -151 -14 -205 l-17 -40 -25 48
c-48 95 -111 153 -187 172 -22 6 -27 13 -27 36 0 29 24 99 34 99 3 0 42 -12
88 -26z m-502 -1034 c0 -6 -5 -16 -10 -23 -6 -7 -19 -24 -31 -40 -30 -40 -105
-80 -147 -79 -40 2 -52 14 -52 54 0 30 29 54 95 81 45 18 145 23 145 7z m-647
-1631 c15 -45 25 -84 23 -88 -16 -25 -82 -518 -146 -1086 -121 -1060 -222
-1560 -377 -1870 -25 -49 -48 -92 -50 -95 -16 -15 14 154 58 327 102 404 133
596 304 1888 41 314 91 665 110 781 19 116 35 214 35 217 0 4 4 7 8 7 5 0 20
-37 35 -81z"/>
<path d="M3140 6028 c-97 -66 -139 -201 -86 -274 20 -27 31 -10 12 18 -20 28
-21 97 -1 144 8 19 14 37 14 40 0 3 17 19 37 35 47 37 95 39 122 4 11 -13 21
-22 24 -20 2 2 1 -25 -3 -61 -7 -67 -19 -99 -19 -50 0 76 -71 93 -105 25 -13
-24 -22 -99 -12 -99 2 0 22 9 45 20 22 11 49 20 59 20 36 0 45 17 51 88 4 69
4 72 -26 101 -36 37 -67 39 -112 9z m68 -150 c-6 -18 -25 -20 -31 -3 -5 10 0
15 14 15 12 0 19 -5 17 -12z"/>
<path d="M3615 5948 c-62 -35 -116 -135 -114 -212 2 -82 62 -153 118 -139 36
9 72 33 65 44 -3 5 0 8 7 7 6 -2 23 18 37 45 46 87 33 208 -27 254 -20 15 -60
16 -86 1z m88 -48 c31 -36 41 -78 33 -133 -9 -59 -26 -83 -26 -37 0 97 -88
110 -124 19 -21 -51 -14 -92 21 -119 28 -22 13 -27 -31 -10 -81 30 -73 211 13
283 44 36 82 35 114 -3z m-33 -176 c0 -17 -26 -19 -36 -3 -7 12 15 31 28 23 4
-3 8 -12 8 -20z"/>
<path d="M590 6573 c0 -5 5 -15 10 -23 8 -12 10 -11 10 8 0 12 -4 22 -10 22
-5 0 -10 -3 -10 -7z"/>
<path d="M601 6518 c0 -9 -15 -28 -32 -42 -17 -14 -28 -30 -24 -36 13 -22 -34
-79 -66 -80 -18 0 -16 -14 25 -165 20 -73 20 -134 1 -250 -20 -120 -19 -157 7
-251 18 -64 21 -102 20 -202 -2 -109 1 -134 29 -240 26 -95 31 -132 29 -197
-9 -230 -7 -254 32 -356 47 -122 62 -212 48 -287 -18 -97 -12 -195 16 -295 24
-81 26 -100 19 -172 -14 -136 -10 -184 24 -303 l33 -113 -18 -124 -18 -124 33
-93 c54 -153 56 -165 41 -293 -13 -116 -13 -117 14 -211 26 -89 27 -103 21
-213 -7 -114 -7 -119 25 -210 31 -91 32 -97 28 -240 -3 -156 11 -299 36 -370
19 -52 19 -51 5 -51 -19 0 -37 64 -50 180 -14 115 -15 161 -10 320 3 74 0 96
-27 170 -28 81 -30 90 -25 206 5 110 3 128 -22 214 -23 77 -26 104 -21 154 20
182 20 186 -15 286 -36 104 -42 183 -25 336 8 75 6 89 -22 185 -41 142 -42
150 -29 265 10 97 10 104 -17 200 -27 92 -28 106 -21 204 13 175 9 220 -39
369 -54 168 -56 179 -44 260 16 118 12 199 -18 296 -24 79 -28 109 -30 240 -2
119 -6 165 -23 220 -23 78 -26 131 -11 220 18 103 14 243 -8 310 -11 33 -23
75 -27 93 -3 17 -11 32 -16 32 -16 0 -10 -47 16 -126 29 -89 31 -142 10 -307
-15 -121 -13 -149 20 -267 9 -36 15 -100 15 -185 0 -114 4 -142 31 -239 28
-98 31 -120 25 -186 -20 -224 -22 -196 27 -346 58 -176 62 -211 47 -344 -13
-109 -13 -110 18 -238 28 -114 30 -135 22 -188 -16 -95 -12 -156 16 -250 39
-129 41 -158 27 -269 -15 -115 -7 -187 32 -292 28 -73 32 -155 14 -259 -10
-58 -9 -71 18 -161 25 -89 28 -110 25 -231 -2 -127 -1 -138 29 -224 30 -88 31
-95 23 -192 -5 -56 -8 -110 -6 -121 24 -258 46 -354 81 -356 44 -3 68 4 89 27
29 33 28 73 -3 220 -24 111 -25 124 -14 212 17 135 8 243 -27 322 -30 71 -34
114 -20 255 7 68 5 90 -12 147 -18 58 -20 83 -15 210 6 136 4 148 -22 237 -26
89 -27 100 -20 225 l7 131 -33 80 -32 80 12 116 c14 127 11 167 -25 312 -22
88 -24 115 -22 280 l3 182 -37 81 c-44 94 -45 113 -18 212 28 101 26 169 -11
298 -52 183 -60 243 -47 374 l11 115 -32 83 c-37 99 -38 137 -9 245 30 112 29
238 -2 327 -13 36 -26 92 -30 125 -4 33 -8 53 -9 43z"/>
<path d="M2989 4872 c21 -39 118 -37 151 4 11 12 8 12 -16 -1 -38 -20 -94 -19
-123 1 -22 16 -23 16 -12 -4z"/>
</g>
</svg>
