<?xml version="1.0" standalone="no"?>
<!DOCTYPE svg PUBLIC "-//W3C//DTD SVG 20010904//EN"
 "http://www.w3.org/TR/2001/REC-SVG-20010904/DTD/svg10.dtd">
<svg version="1.0" xmlns="http://www.w3.org/2000/svg"
 width="862.000000pt" height="360.000000pt" viewBox="0 0 862.000000 360.000000"
 preserveAspectRatio="xMidYMid meet">

<g transform="translate(0.000000,360.000000) scale(0.100000,-0.100000)"
fill="#000000" stroke="none">
<path d="M3794 2750 c-184 -39 -300 -207 -280 -406 10 -99 33 -150 92 -210 74
-73 155 -99 288 -91 50 3 106 10 124 17 32 12 32 12 32 82 0 63 -2 69 -17 63
-50 -21 -132 -35 -173 -29 -125 17 -186 97 -178 238 3 63 8 81 33 118 42 60
101 88 185 88 36 -1 83 -7 105 -15 22 -8 41 -15 43 -15 1 0 2 33 2 74 0 68 -2
74 -22 80 -40 11 -191 15 -234 6z"/>
<path d="M4865 2753 c-78 -17 -141 -58 -167 -107 -35 -65 -26 -160 20 -215 16
-19 69 -53 131 -84 112 -56 148 -90 137 -130 -7 -31 -60 -57 -113 -57 -52 0
-134 25 -167 51 l-26 20 0 -79 0 -80 38 -14 c23 -8 83 -13 157 -13 114 0 123
1 175 30 71 39 100 87 100 168 0 105 -33 145 -182 217 -45 22 -93 50 -106 62
-30 29 -25 65 11 92 39 29 133 28 200 -2 l47 -21 0 74 0 73 -50 11 c-50 11
-165 13 -205 4z"/>
<path d="M6995 2743 c-97 -29 -155 -99 -155 -187 0 -96 45 -150 175 -211 104
-49 138 -80 133 -121 -8 -70 -138 -83 -250 -26 l-58 31 0 -79 0 -79 43 -13
c23 -7 93 -13 157 -13 106 0 120 2 172 28 66 32 98 76 106 142 12 113 -33 175
-176 242 -51 24 -101 52 -112 63 -29 29 -26 76 7 97 39 26 144 23 203 -6 24
-11 45 -21 47 -21 2 0 3 33 3 73 l0 74 -51 11 c-69 16 -183 14 -244 -5z"/>
<path d="M2230 2400 l0 -350 75 0 75 0 2 240 3 241 156 -238 156 -238 81 -3
82 -3 0 351 0 350 -75 0 -75 0 0 -236 0 -236 -153 233 -153 234 -87 3 -87 3 0
-351z"/>
<path d="M3020 2400 l0 -350 210 0 210 0 0 65 0 65 -130 0 -130 0 0 80 0 80
115 0 115 0 0 60 0 60 -115 0 -115 0 0 80 0 80 120 0 120 0 0 65 0 65 -200 0
-200 0 0 -350z"/>
<path d="M4180 2400 l0 -350 210 0 211 0 -3 63 -3 62 -133 3 -133 3 3 77 3 77
113 3 112 3 0 59 0 59 -112 3 -113 3 -3 78 -3 77 126 0 125 0 0 65 0 65 -200
0 -200 0 0 -350z"/>
<path d="M5270 2400 l0 -350 80 0 80 0 0 350 0 350 -80 0 -80 0 0 -350z"/>
<path d="M5520 2685 l0 -65 100 0 100 0 0 -285 0 -285 80 0 80 0 0 285 0 285
100 0 100 0 0 65 0 65 -280 0 -280 0 0 -65z"/>
<path d="M6345 2733 c-18 -46 -245 -674 -245 -678 0 -3 38 -5 84 -5 l85 0 23
78 24 77 124 0 124 0 25 -77 25 -78 88 0 88 0 -11 28 c-6 15 -58 160 -116 322
-58 162 -109 307 -115 323 -10 27 -11 27 -103 27 -79 0 -94 -3 -100 -17z m149
-302 c14 -41 26 -80 26 -88 0 -10 -21 -13 -84 -13 l-84 0 39 123 c52 165 49
159 64 102 8 -27 25 -83 39 -124z"/>
<path d="M1896 2539 c-19 -15 -26 -30 -26 -55 0 -79 103 -112 160 -52 68 73
-53 171 -134 107z"/>
<path d="M1907 2311 c5 -38 3 -43 -71 -120 -42 -44 -81 -92 -86 -106 -16 -42
-12 -117 8 -155 42 -78 182 -112 307 -73 l60 19 3 77 3 78 -41 -27 c-49 -32
-140 -45 -166 -23 -48 40 -34 97 41 169 56 54 75 88 75 134 0 61 -6 66 -75 66
l-63 0 5 -39z"/>
<path d="M6180 1402 l-45 -18 -3 -72 c-2 -39 -1 -72 2 -72 3 0 20 9 38 20 77
47 154 49 183 3 26 -39 6 -93 -51 -140 -65 -55 -98 -134 -78 -187 5 -12 21
-16 69 -16 58 0 63 2 58 20 -10 37 7 67 71 130 78 75 96 110 96 183 0 64 -26
110 -80 141 -49 29 -197 33 -260 8z"/>
<path d="M2885 1398 c-3 -7 -57 -157 -121 -333 -64 -176 -119 -328 -121 -337
-5 -16 3 -18 79 -18 l84 0 25 78 25 77 125 3 126 3 22 -76 c12 -42 28 -78 35
-81 7 -3 47 -4 88 -2 l76 3 -123 345 -122 345 -97 3 c-72 2 -98 -1 -101 -10z
m154 -315 l29 -93 -89 0 c-66 0 -87 3 -84 13 2 6 20 64 40 127 20 63 39 122
42 130 3 9 11 -6 19 -35 7 -27 27 -92 43 -142z"/>
<path d="M3340 1406 c0 -2 50 -106 110 -231 l110 -227 0 -119 0 -119 75 0 75
0 0 120 0 120 115 230 115 230 -84 0 -83 0 -33 -77 c-18 -43 -48 -114 -66
-158 -19 -44 -34 -74 -34 -66 0 8 -27 78 -61 157 l-61 144 -89 0 c-49 0 -89
-2 -89 -4z"/>
<path d="M4010 1223 c0 -132 5 -217 17 -286 16 -95 18 -99 67 -151 48 -50 56
-55 128 -70 70 -14 83 -14 155 1 80 17 118 41 164 105 34 47 49 166 49 386 l0
202 -79 0 -80 0 -3 -249 -3 -250 -28 -29 c-32 -33 -79 -46 -131 -36 -25 4 -42
17 -63 47 l-28 40 -3 239 -4 238 -79 0 -79 0 0 -187z"/>
<path d="M4742 1063 l3 -348 110 -3 c150 -4 253 10 321 43 140 68 206 212 175
378 -24 124 -28 131 -92 187 -58 50 -67 55 -153 71 -58 12 -140 18 -229 18
l-137 1 2 -347z m348 197 c83 -42 123 -144 100 -255 -22 -107 -108 -165 -245
-165 l-45 0 0 220 0 220 75 0 c56 0 86 -5 115 -20z"/>
<path d="M5655 1398 c-3 -7 -57 -157 -121 -333 -64 -176 -119 -328 -121 -337
-5 -16 3 -18 79 -18 l84 0 25 78 25 77 124 0 124 0 26 -75 25 -75 83 -3 c57
-2 82 1 82 9 0 9 -205 594 -235 672 -6 14 -21 17 -101 17 -67 0 -96 -4 -99
-12z m141 -273 l41 -135 -88 0 -88 0 13 43 c51 166 72 227 76 227 3 0 23 -61
46 -135z"/>
<path d="M6241 841 c-33 -25 -34 -82 -3 -114 32 -32 106 -31 133 2 28 35 25
85 -7 110 -33 26 -91 27 -123 2z"/>
</g>
</svg>
