<?xml version="1.0" standalone="no"?>
<!DOCTYPE svg PUBLIC "-//W3C//DTD SVG 20010904//EN"
 "http://www.w3.org/TR/2001/REC-SVG-20010904/DTD/svg10.dtd">
<svg version="1.0" xmlns="http://www.w3.org/2000/svg"
 width="262.000000pt" height="192.000000pt" viewBox="0 0 262.000000 192.000000"
 preserveAspectRatio="xMidYMid meet">

<g transform="translate(0.000000,192.000000) scale(0.100000,-0.100000)"
fill="#000000" stroke="none">
<path d="M1421 1727 c-6 -9 -12 -83 -13 -198 l-3 -184 -568 -5 -569 -5 -19
-24 c-18 -22 -19 -43 -19 -311 0 -275 1 -288 21 -314 l20 -26 577 -2 577 -3 5
-198 c4 -161 8 -200 20 -207 23 -14 49 -2 116 54 33 28 80 67 105 87 24 20
117 97 205 170 89 74 205 170 259 214 54 44 103 85 109 90 6 6 32 27 57 48 59
47 76 85 59 127 -14 33 -153 147 -510 418 -25 19 -59 45 -75 58 -17 13 -44 34
-61 46 -18 13 -77 58 -134 101 -100 76 -136 91 -159 64z"/>
<path d="M2381 1012 c-1 -18 -6 -42 -11 -52 -6 -10 -204 -179 -441 -374 -322
-267 -437 -356 -457 -357 -24 0 -24 -1 -7 -8 11 -4 30 -5 42 -2 38 10 863 701
880 737 12 24 13 38 5 60 l-10 29 -1 -33z"/>
<path d="M273 638 c16 -10 1137 -10 1137 0 0 4 -258 7 -574 7 -316 0 -569 -3
-563 -7z"/>
</g>
</svg>
