<?xml version="1.0" standalone="no"?>
<!DOCTYPE svg PUBLIC "-//W3C//DTD SVG 20010904//EN"
 "http://www.w3.org/TR/2001/REC-SVG-20010904/DTD/svg10.dtd">
<svg version="1.0" xmlns="http://www.w3.org/2000/svg"
 width="446.000000pt" height="600.000000pt" viewBox="0 0 446.000000 600.000000"
 preserveAspectRatio="xMidYMid meet">

<g transform="translate(0.000000,600.000000) scale(0.100000,-0.100000)"
fill="#000000" stroke="none">
<path d="M2410 5386 c-70 -19 -153 -64 -209 -113 -92 -80 -217 -280 -259 -413
-58 -182 -63 -292 -24 -505 34 -184 53 -477 33 -490 -14 -8 -372 -81 -461 -94
-41 -6 -148 -17 -236 -25 -89 -8 -177 -21 -195 -29 -19 -8 -60 -38 -93 -68
-178 -163 -254 -394 -212 -647 l17 -101 -27 -83 c-23 -72 -27 -100 -27 -213
-1 -145 11 -214 55 -325 28 -69 29 -79 19 -129 -39 -195 27 -462 192 -771 28
-52 68 -120 88 -151 78 -116 198 -195 356 -235 158 -39 454 -33 580 13 53 19
138 21 236 4 232 -40 533 84 702 288 l49 59 41 -21 c27 -14 65 -22 122 -25 75
-4 87 -2 145 25 84 40 211 135 275 207 135 151 210 399 220 723 6 196 -8 315
-57 458 -85 252 -222 380 -436 409 l-87 11 -12 36 c-35 101 -126 233 -262 380
-69 75 -97 114 -130 185 -58 122 -88 235 -108 400 l-17 139 31 132 c41 174 77
366 90 483 12 113 1 184 -50 306 -67 161 -190 224 -349 180z m163 -139 c44
-25 67 -59 102 -151 34 -90 32 -152 -9 -382 -74 -414 -76 -441 -41 -619 8 -38
18 -106 24 -151 12 -96 77 -279 123 -344 18 -25 84 -101 148 -170 170 -183
218 -272 264 -488 29 -136 35 -320 16 -482 -5 -47 -12 -110 -16 -141 -7 -57 4
-81 24 -56 12 14 67 351 78 478 4 45 2 104 -6 147 -14 83 -8 110 27 123 35 13
114 -25 175 -86 63 -62 150 -212 183 -315 23 -74 28 -107 32 -255 6 -178 -11
-383 -41 -496 -41 -154 -150 -306 -261 -361 -131 -66 -325 -64 -325 3 0 11 21
61 46 111 57 114 76 166 68 190 -11 36 -31 17 -74 -74 -85 -174 -208 -342
-310 -422 -66 -52 -173 -107 -273 -141 -81 -27 -217 -45 -217 -28 0 5 38 40
84 77 84 66 182 177 231 260 33 56 61 153 70 243 7 69 6 74 -46 204 -59 150
-74 234 -44 259 15 12 27 11 93 -13 95 -33 182 -36 273 -7 95 29 129 53 129
90 0 35 -7 36 -58 13 -24 -10 -64 -16 -112 -16 -145 0 -298 79 -360 186 -34
58 -34 70 -5 197 20 89 14 183 -17 275 -28 80 -38 95 -136 200 -96 102 -103
115 -161 281 -50 142 -73 184 -101 184 -30 0 -26 -26 27 -185 28 -85 44 -149
40 -160 -7 -16 -16 -17 -100 -11 -123 10 -154 20 -275 88 -213 122 -460 226
-508 214 -26 -7 -31 -28 -11 -43 6 -6 48 -25 92 -43 244 -100 367 -167 452
-248 49 -48 53 -56 101 -203 28 -85 54 -171 57 -192 4 -21 12 -36 19 -34 18 6
19 105 1 211 -9 54 -13 102 -8 107 4 4 36 15 70 24 54 14 69 14 131 1 128 -27
192 -77 232 -184 34 -90 23 -287 -20 -372 -31 -61 -144 -156 -250 -210 -49
-25 -242 -91 -249 -85 -2 2 10 26 27 52 41 63 58 129 43 166 -17 44 -38 33
-56 -29 -19 -66 -105 -164 -145 -164 -32 0 -150 82 -229 161 -71 70 -181 147
-346 244 -176 104 -288 203 -325 290 -24 55 -33 186 -20 287 18 139 53 228
118 300 56 62 96 75 252 83 156 7 225 16 445 55 88 16 179 31 202 33 48 6 41
16 74 -116 24 -99 53 -67 63 70 3 54 9 114 12 135 l6 36 30 -34 c33 -37 49
-42 67 -20 10 12 4 29 -28 88 -44 82 -90 225 -122 386 -16 83 -21 144 -21 268
0 198 20 291 92 439 62 126 116 188 212 243 114 65 190 73 271 29z m-1403
-2643 c403 -312 543 -414 627 -458 68 -35 224 -15 351 44 69 32 210 123 275
177 37 32 42 33 53 18 18 -24 27 -114 22 -201 -10 -157 -130 -312 -336 -433
-57 -33 -322 -151 -341 -151 -15 0 -14 4 9 95 11 43 20 97 20 121 0 51 -16 97
-31 92 -6 -2 -24 -37 -39 -78 -38 -105 -64 -153 -100 -183 -60 -51 -91 -46
-235 41 -245 148 -415 311 -529 508 -63 109 -83 167 -97 275 -11 92 0 259 21
314 10 26 47 37 70 20 8 -7 125 -97 260 -201z m175 -1015 c39 -30 99 -73 134
-95 59 -36 72 -39 146 -42 271 -12 587 138 827 391 l86 92 17 -40 c10 -22 24
-75 31 -119 16 -89 6 -180 -26 -254 -45 -100 -237 -253 -403 -320 -43 -17
-135 -48 -205 -68 -116 -33 -141 -37 -290 -41 -220 -7 -325 17 -416 98 -77 67
-233 323 -287 470 -35 95 -50 232 -30 283 l11 28 168 -163 c92 -91 199 -189
237 -220z"/>
</g>
</svg>
