<?xml version="1.0" standalone="no"?>
<!DOCTYPE svg PUBLIC "-//W3C//DTD SVG 20010904//EN"
 "http://www.w3.org/TR/2001/REC-SVG-20010904/DTD/svg10.dtd">
<svg version="1.0" xmlns="http://www.w3.org/2000/svg"
 width="1200.000000pt" height="630.000000pt" viewBox="0 0 1200.000000 630.000000"
 preserveAspectRatio="xMidYMid meet">

<g transform="translate(0.000000,630.000000) scale(0.100000,-0.100000)"
fill="#000000" stroke="none">
<path d="M5700 6285 c-927 -94 -1737 -565 -2277 -1326 -513 -721 -695 -1669
-487 -2539 197 -821 692 -1500 1434 -1966 310 -194 740 -351 1135 -413 1140
-181 2287 274 2987 1184 587 763 793 1734 568 2671 -184 763 -662 1444 -1320
1878 -150 100 -262 162 -420 235 -501 232 -1080 331 -1620 276z m430 -1225
c276 -23 514 -99 710 -228 250 -163 377 -381 409 -700 29 -277 -59 -548 -238
-736 -58 -60 -311 -265 -413 -334 -116 -78 -195 -148 -233 -205 -41 -61 -75
-156 -75 -206 0 -20 -3 -53 -6 -73 l-7 -38 -364 0 -365 0 7 113 c14 260 34
354 93 439 63 92 281 278 503 430 148 101 241 212 289 345 40 111 18 257 -59
383 -75 125 -169 165 -386 165 -158 -1 -212 -16 -292 -81 -85 -70 -165 -246
-180 -399 l-8 -76 -367 1 c-203 0 -372 0 -377 0 -10 0 -7 55 10 198 70 584
462 960 1044 1002 151 10 180 11 305 0z m-102 -2920 c73 -10 179 -57 231 -101
127 -110 181 -306 133 -480 -36 -128 -109 -217 -226 -274 -231 -113 -521 -29
-630 184 -55 106 -66 265 -27 376 77 216 278 330 519 295z"/>
</g>
</svg>
