<?xml version="1.0" standalone="no"?>
<!DOCTYPE svg PUBLIC "-//W3C//DTD SVG 20010904//EN"
 "http://www.w3.org/TR/2001/REC-SVG-20010904/DTD/svg10.dtd">
<svg version="1.0" xmlns="http://www.w3.org/2000/svg"
 width="862.000000pt" height="360.000000pt" viewBox="0 0 862.000000 360.000000"
 preserveAspectRatio="xMidYMid meet">

<g transform="translate(0.000000,360.000000) scale(0.100000,-0.100000)"
fill="#000000" stroke="none">
<path d="M3733 2180 c-50 -12 -79 -35 -103 -84 -28 -58 -35 -133 -22 -220 18
-116 71 -166 173 -166 108 0 172 131 147 302 -15 100 -44 143 -111 163 -28 8
-51 15 -51 14 -1 -1 -16 -4 -33 -9z m52 -76 c27 -11 45 -72 45 -157 0 -122
-25 -170 -79 -152 -60 19 -59 284 1 308 7 3 14 6 15 6 1 1 9 -2 18 -5z"/>
<path d="M4368 2152 c-66 -34 -68 -36 -68 -73 0 -44 8 -47 64 -24 l36 15 0
-180 0 -180 50 0 50 0 0 240 0 240 -32 -2 c-18 0 -63 -17 -100 -36z"/>
<path d="M4757 2176 c-49 -18 -64 -31 -90 -80 -19 -35 -22 -57 -22 -157 0
-110 1 -118 28 -158 65 -98 214 -92 269 12 20 37 23 56 22 158 -1 111 -2 119
-30 163 -25 39 -37 48 -81 61 -60 18 -49 17 -96 1z m77 -85 c45 -50 42 -255
-5 -293 -47 -39 -89 27 -89 139 0 136 45 209 94 154z"/>
<path d="M5153 2180 c-52 -12 -83 -38 -106 -88 -18 -39 -22 -65 -21 -154 0
-100 2 -110 30 -154 61 -100 207 -99 265 1 46 78 41 262 -9 338 -19 29 -36 40
-75 52 -28 8 -51 15 -51 14 -1 -1 -16 -4 -33 -9z m59 -82 c52 -42 51 -270 -2
-303 -22 -14 -57 5 -71 37 -31 74 -8 255 33 271 20 8 23 8 40 -5z"/>
<path d="M3257 2083 c-4 -54 -7 -112 -7 -129 l0 -30 64 0 c69 0 92 -11 107
-51 24 -64 -44 -105 -131 -80 l-50 15 0 -43 c0 -50 9 -55 105 -55 113 0 185
61 185 155 0 81 -57 135 -142 135 l-49 0 3 48 3 47 83 3 82 3 0 39 0 40 -123
0 -124 0 -6 -97z"/>
<path d="M4010 1895 l0 -35 85 0 85 0 0 35 0 35 -85 0 -85 0 0 -35z"/>
</g>
</svg>
