<?xml version="1.0" standalone="no"?>
<!DOCTYPE svg PUBLIC "-//W3C//DTD SVG 20010904//EN"
 "http://www.w3.org/TR/2001/REC-SVG-20010904/DTD/svg10.dtd">
<svg version="1.0" xmlns="http://www.w3.org/2000/svg"
 width="259.000000pt" height="194.000000pt" viewBox="0 0 259.000000 194.000000"
 preserveAspectRatio="xMidYMid meet">

<g transform="translate(0.000000,194.000000) scale(0.100000,-0.100000)"
fill="#000000" stroke="none">
<path d="M536 1678 c-12 -40 0 -1408 13 -1421 8 -8 11 133 10 488 -2 592 -11
971 -23 933z"/>
<path d="M1665 1620 c7 -12 69 -12 105 0 18 6 6 8 -43 9 -43 1 -66 -3 -62 -9z"/>
<path d="M1955 1603 c3 -16 14 -39 23 -53 l17 -25 3 29 c6 46 -6 76 -29 76
-18 0 -20 -4 -14 -27z"/>
<path d="M733 1613 c9 -2 23 -2 30 0 6 3 -1 5 -18 5 -16 0 -22 -2 -12 -5z"/>
<path d="M1018 1607 c7 -7 13 -33 16 -58 2 -24 5 -48 6 -54 1 -5 2 -12 0 -15
-1 -3 -2 -60 -3 -127 -2 -96 1 -119 11 -111 9 8 12 56 12 178 0 93 -3 175 -6
184 -3 9 -15 16 -26 16 -16 0 -18 -3 -10 -13z"/>
<path d="M1478 1607 c7 -8 12 -81 13 -190 1 -136 4 -177 14 -177 22 0 24 22
19 194 -2 92 -4 171 -4 176 0 6 -12 10 -26 10 -21 0 -24 -3 -16 -13z"/>
<path d="M744 1587 c-72 -42 -94 -88 -59 -123 18 -19 20 -60 3 -71 -30 -19
-38 -50 -21 -85 9 -18 17 -34 18 -36 6 -7 65 -20 60 -12 -3 4 16 25 41 45 37
30 45 34 42 19 -1 -11 7 -32 19 -48 13 -16 20 -32 17 -37 -3 -5 13 -9 35 -9
23 0 40 4 38 10 -1 5 15 25 36 42 l37 33 -40 47 c-25 29 -38 52 -34 62 3 9 9
16 13 16 3 0 23 15 44 33 l37 32 -34 39 -34 38 -45 -31 c-25 -17 -52 -31 -61
-31 -8 0 -30 18 -47 40 -36 44 -36 44 -65 27z"/>
<path d="M1652 1563 c-18 -9 -37 -23 -41 -32 -16 -30 -22 -116 -11 -171 8 -45
17 -61 47 -87 33 -29 45 -33 93 -32 44 1 50 2 28 9 -53 16 -90 46 -114 92 -37
73 -30 145 22 216 19 26 19 26 -24 5z"/>
<path d="M1803 1470 c-27 -11 -30 -42 -7 -64 21 -22 40 -20 58 5 15 22 11 48
-8 61 -13 9 -15 9 -43 -2z"/>
<path d="M1978 1328 c-21 -42 -29 -88 -14 -88 28 1 37 18 34 69 l-3 52 -17
-33z"/>
<path d="M1331 1153 c-24 -3 -30 -7 -21 -13 11 -7 10 -13 -4 -34 l-17 -26 -39
22 c-39 23 -40 23 -74 4 -51 -27 -54 -61 -11 -135 12 -21 12 -29 -1 -52 -26
-51 -17 -73 43 -106 39 -22 66 -15 98 27 l30 38 40 -23 c58 -33 79 -34 104 -5
l22 25 -3 -53 c-2 -42 0 -52 12 -50 13 3 15 33 18 185 2 168 1 183 -16 192
-17 9 -18 4 -14 -105 3 -63 1 -114 -3 -114 -13 0 -75 50 -75 60 0 5 15 30 33
56 l32 46 -39 34 c-22 19 -49 33 -60 32 -12 0 -36 -3 -55 -5z"/>
<path d="M1686 1138 c10 -12 14 -19 8 -15 -6 3 -20 -2 -30 -12 -11 -10 -26
-20 -34 -23 -15 -5 -40 -79 -40 -120 0 -36 22 -120 35 -133 5 -6 23 -18 38
-28 15 -10 25 -22 22 -27 -4 -6 15 -10 46 -10 l53 0 -50 25 c-61 31 -95 79
-102 145 -9 96 41 172 135 206 l38 13 -69 1 -69 0 19 -22z"/>
<path d="M1960 1121 c4 -21 14 -49 23 -62 17 -23 17 -22 17 33 0 42 -4 57 -16
62 -28 11 -31 7 -24 -33z"/>
<path d="M710 1140 c13 -9 11 -14 -12 -35 -16 -13 -28 -31 -28 -39 0 -8 -4
-17 -9 -20 -4 -3 -11 -26 -14 -51 -8 -55 15 -132 46 -158 47 -38 62 -40 30 -4
-31 35 -53 90 -53 132 0 68 48 146 105 171 30 13 29 13 -25 13 -40 1 -51 -2
-40 -9z"/>
<path d="M1031 1103 c4 -26 12 -61 17 -78 9 -25 10 -18 9 45 -2 59 -5 75 -18
78 -13 2 -14 -4 -8 -45z"/>
<path d="M847 1003 c-4 -3 -7 -19 -7 -34 0 -38 31 -55 54 -30 20 22 20 35 0
55 -16 17 -36 21 -47 9z"/>
<path d="M1784 975 c-7 -29 10 -55 36 -55 26 0 43 26 36 55 -5 20 -13 25 -36
25 -23 0 -31 -5 -36 -25z"/>
<path d="M1044 903 c-4 -21 -8 -61 -9 -90 -2 -39 1 -50 11 -46 10 4 14 28 14
89 0 46 -2 84 -4 84 -2 0 -7 -17 -12 -37z"/>
<path d="M1983 859 c-6 -13 -13 -39 -16 -56 -3 -26 0 -33 14 -33 23 0 27 16
20 69 -6 42 -7 43 -18 20z"/>
<path d="M793 763 c15 -2 37 -2 50 0 12 2 0 4 -28 4 -27 0 -38 -2 -22 -4z"/>
<path d="M1494 673 c3 -10 6 -100 8 -200 1 -101 5 -183 9 -183 4 0 12 7 19 15
9 11 10 59 3 197 -7 166 -10 183 -26 186 -14 3 -18 -1 -13 -15z"/>
<path d="M1974 644 c2 -25 5 -47 7 -49 2 -2 2 -42 -1 -88 -4 -76 -3 -87 14
-97 16 -10 18 -9 12 5 -3 9 -6 72 -6 140 0 99 -3 124 -15 128 -11 5 -14 -3
-11 -39z"/>
<path d="M734 673 c16 -4 14 -10 -20 -39 -79 -70 -86 -215 -14 -279 l23 -20
-23 45 c-27 53 -30 133 -6 178 25 48 92 99 144 110 45 9 43 10 -38 10 -47 0
-76 -2 -66 -5z"/>
<path d="M898 673 c6 -2 18 -2 25 0 6 3 1 5 -13 5 -14 0 -19 -2 -12 -5z"/>
<path d="M1035 638 c11 -91 34 -111 29 -25 -2 28 -3 55 -4 60 0 4 -7 7 -15 7
-12 0 -14 -9 -10 -42z"/>
<path d="M1814 623 c-30 -32 -33 -38 -18 -43 10 -4 26 3 41 17 25 26 46 23 36
-4 -4 -11 -2 -14 5 -9 6 4 20 2 31 -4 14 -7 22 -7 27 2 4 7 3 8 -4 4 -7 -4
-12 -3 -12 2 0 5 -9 12 -21 15 -13 4 -18 10 -13 18 4 8 3 10 -4 5 -16 -9 -15
7 0 22 9 9 7 12 -11 12 -13 0 -37 -16 -57 -37z"/>
<path d="M1644 627 c-32 -28 -37 -76 -11 -105 21 -23 21 -54 2 -107 -14 -39
-13 -41 13 -62 15 -12 39 -25 54 -28 15 -4 30 -11 34 -16 3 -5 22 9 43 32 l38
43 35 -27 c53 -41 73 -34 29 11 -22 23 -39 33 -44 27 -5 -6 -6 -2 -3 8 3 10 6
22 6 25 0 4 4 1 9 -7 11 -17 34 -4 27 14 -3 8 2 19 10 25 20 18 17 37 -6 43
-18 4 -20 2 -14 -16 6 -19 5 -20 -9 -8 -9 7 -14 18 -10 24 10 16 12 77 3 77
-5 0 -15 -7 -24 -15 -17 -17 -30 -20 -21 -5 3 6 1 10 -5 10 -7 0 -32 18 -57
40 -25 22 -52 40 -59 40 -7 0 -25 -11 -40 -23z m56 -1 c0 -2 -7 -7 -16 -10 -8
-3 -12 -2 -9 4 6 10 25 14 25 6z m67 -78 c-3 -8 -6 -5 -6 6 -1 11 2 17 5 13 3
-3 4 -12 1 -19z"/>
<path d="M1869 568 c-5 -19 -8 -50 -4 -46 7 7 15 48 9 48 -2 0 -4 -1 -5 -2z"/>
<path d="M857 522 c-23 -5 -20 -60 5 -76 25 -15 53 14 44 47 -6 27 -21 36 -49
29z"/>
<path d="M1050 425 c-5 -14 -11 -45 -13 -68 -1 -23 -6 -48 -10 -54 -6 -9 -2
-13 12 -13 12 0 22 6 22 13 3 34 4 147 2 147 -2 0 -8 -11 -13 -25z"/>
<path d="M1900 420 c-8 -5 -12 -12 -9 -15 4 -3 12 1 19 10 14 17 11 19 -10 5z"/>
<path d="M1900 380 c-8 -5 -10 -10 -5 -10 6 0 17 5 25 10 8 5 11 10 5 10 -5 0
-17 -5 -25 -10z"/>
<path d="M1994 369 c-14 -18 -24 -68 -14 -74 15 -9 31 24 28 56 -2 26 -5 30
-14 18z"/>
<path d="M735 290 c-14 -6 2 -8 50 -8 52 0 62 2 40 8 -40 10 -66 10 -90 0z"/>
<path d="M1360 261 c0 -6 3 -10 8 -8 4 1 7 -2 7 -8 0 -5 -11 -10 -25 -10 -17
-1 -26 -7 -27 -20 -3 -19 -3 -19 6 0 5 11 10 15 10 9 1 -7 8 -15 17 -18 8 -3
12 -2 9 4 -3 5 6 3 20 -4 30 -16 65 -10 65 9 0 8 -9 16 -20 20 -11 3 -19 12
-17 18 1 7 -10 13 -25 15 -16 2 -28 -1 -28 -7z"/>
<path d="M1442 255 c-11 -12 -10 -15 3 -15 8 0 15 -7 15 -15 0 -8 5 -15 10
-15 13 0 13 27 0 35 -6 4 -8 11 -5 16 10 14 -9 10 -23 -6z"/>
<path d="M1290 231 c0 -5 5 -13 10 -16 6 -3 10 -2 10 4 0 5 -4 13 -10 16 -5 3
-10 2 -10 -4z"/>
</g>
</svg>
