<?xml version="1.0" standalone="no"?>
<!DOCTYPE svg PUBLIC "-//W3C//DTD SVG 20010904//EN"
 "http://www.w3.org/TR/2001/REC-SVG-20010904/DTD/svg10.dtd">
<svg version="1.0" xmlns="http://www.w3.org/2000/svg"
 width="318.000000pt" height="159.000000pt" viewBox="0 0 318.000000 159.000000"
 preserveAspectRatio="xMidYMid meet">

<g transform="translate(0.000000,159.000000) scale(0.100000,-0.100000)"
fill="#000000" stroke="none">
<path d="M225 1394 c-11 -2 -45 -9 -75 -15 -57 -12 -90 -32 -90 -56 0 -8 23
-48 51 -90 l51 -75 -21 -38 c-27 -48 -27 -66 0 -73 21 -6 21 -8 14 -204 -10
-285 -21 -341 -83 -439 -49 -75 -50 -80 -35 -103 14 -22 14 -25 -13 -46 -64
-51 -6 -65 271 -65 228 0 266 11 215 65 -17 18 -21 31 -16 50 5 21 -3 43 -42
103 -60 95 -69 143 -78 430 -7 202 -7 203 15 209 26 7 26 14 0 65 l-21 40 33
52 c70 110 76 124 59 140 -34 33 -172 62 -235 50z"/>
<path d="M818 1251 c-40 -47 -74 -62 -122 -54 -20 3 -36 3 -36 -1 0 -3 23 -45
50 -93 28 -48 50 -92 50 -98 0 -5 -9 -30 -20 -54 -24 -53 -24 -48 2 -54 21 -6
21 -7 14 -206 l-7 -200 -45 -78 c-31 -54 -44 -87 -42 -109 1 -18 -4 -39 -11
-48 -8 -9 -11 -26 -7 -41 l6 -25 159 0 c87 0 186 3 220 6 55 6 61 9 61 30 0
13 -9 28 -19 34 -17 8 -18 14 -9 38 10 25 6 36 -30 98 -55 92 -61 129 -62 329
0 160 1 171 20 183 20 12 20 12 -2 51 l-22 39 19 43 c11 24 35 68 53 98 30 50
31 55 15 67 -10 7 -25 11 -33 8 -41 -16 -50 -13 -99 30 -28 25 -56 46 -61 46
-4 0 -24 -18 -42 -39z"/>
<path d="M1315 1058 c-38 -78 -41 -108 -24 -189 9 -39 8 -62 -1 -92 -10 -34
-9 -42 3 -49 12 -6 14 -26 10 -110 -7 -134 -23 -188 -73 -245 -33 -38 -40 -52
-35 -73 4 -18 1 -31 -10 -40 -8 -7 -15 -23 -15 -35 0 -22 4 -23 117 -30 146
-9 291 -1 310 18 12 11 11 17 -6 38 -12 16 -17 34 -14 52 4 19 -3 37 -26 66
-60 76 -81 140 -81 251 0 89 2 100 21 113 l20 15 -21 42 -22 42 22 58 c17 45
20 68 15 105 -7 42 -35 85 -57 85 -4 0 -8 -29 -8 -63 0 -50 -4 -68 -19 -81
-17 -16 -18 -14 -25 45 -3 34 -6 82 -6 105 0 38 -3 44 -20 44 -16 0 -29 -18
-55 -72z"/>
<path d="M1783 1062 l-72 -14 -28 -70 -27 -71 33 -161 c31 -150 32 -165 21
-224 -12 -59 -12 -64 8 -85 23 -24 41 -87 26 -87 -5 0 -17 -7 -28 -15 -16 -12
-17 -18 -7 -44 11 -24 10 -33 -4 -54 -15 -24 -15 -26 4 -36 27 -15 378 -15
420 0 36 13 38 19 11 44 -19 17 -19 20 -4 43 15 23 14 25 -9 51 -23 25 -24 31
-20 117 5 86 4 93 -27 155 -18 35 -53 88 -79 118 l-45 53 29 24 c24 20 37 23
66 19 34 -6 38 -4 58 31 26 44 21 85 -12 102 -12 7 -51 16 -86 21 -100 16
-149 38 -153 70 l-3 27 -72 -14z"/>
<path d="M2307 953 c-4 -3 -7 -32 -7 -64 0 -51 2 -57 24 -63 23 -6 24 -8 31
-163 l7 -158 -40 -90 c-31 -71 -38 -95 -30 -114 6 -18 4 -29 -8 -42 -11 -12
-14 -27 -10 -44 l6 -25 199 0 c186 0 199 1 216 20 18 20 18 21 -4 44 -18 19
-20 28 -12 49 8 22 4 40 -29 111 -44 92 -45 99 -33 294 6 107 8 115 30 125 20
9 23 17 23 69 l0 58 -65 0 c-61 0 -65 -2 -66 -22 l0 -23 -9 23 c-8 18 -17 22
-50 22 -33 0 -40 -3 -40 -20 0 -11 -4 -20 -9 -20 -5 0 -7 9 -4 20 5 18 0 20
-54 20 -33 0 -63 -3 -66 -7z"/>
<path d="M2924 708 c-13 -25 -14 -36 -5 -50 13 -21 7 -38 -13 -38 -10 0 -12
-22 -8 -99 l5 -99 -47 -59 c-25 -33 -46 -66 -46 -75 0 -8 -9 -27 -20 -41 -11
-14 -17 -32 -14 -41 6 -14 29 -16 198 -14 175 3 191 4 194 21 2 10 -4 27 -13
37 -10 11 -15 26 -12 34 3 8 -14 37 -42 69 -45 51 -48 59 -55 126 -5 55 -3 79
9 101 19 37 19 37 -6 43 -18 5 -21 11 -17 39 7 47 -16 78 -58 78 -28 0 -36 -6
-50 -32z"/>
</g>
</svg>
