<?xml version="1.0" standalone="no"?>
<!DOCTYPE svg PUBLIC "-//W3C//DTD SVG 20010904//EN"
 "http://www.w3.org/TR/2001/REC-SVG-20010904/DTD/svg10.dtd">
<svg version="1.0" xmlns="http://www.w3.org/2000/svg"
 width="440.000000pt" height="328.000000pt" viewBox="0 0 440.000000 328.000000"
 preserveAspectRatio="xMidYMid meet">

<g transform="translate(0.000000,328.000000) scale(0.100000,-0.100000)"
fill="#000000" stroke="none">
<path d="M1037 2883 c-18 -3 -31 -13 -38 -29 -5 -15 -9 -206 -9 -449 0 -360 2
-424 14 -428 21 -8 29 23 28 109 l-1 72 36 5 c23 4 40 2 44 -5 4 -6 6 -45 5
-87 l-1 -76 -30 -6 -30 -6 26 -11 c24 -10 26 -14 21 -66 -3 -36 0 -61 8 -71 7
-9 10 -27 7 -44 -4 -16 -2 -42 2 -58 10 -35 -2 -63 -28 -63 -18 0 -17 -2 2
-41 16 -33 18 -47 10 -74 -9 -27 -8 -35 3 -39 10 -4 14 -25 14 -76 0 -38 -3
-70 -7 -70 -9 0 -8 -117 2 -178 9 -52 1 -79 -19 -63 -11 9 -15 8 -20 -6 -6
-15 -8 -15 -22 -1 -19 19 -24 109 -6 115 7 3 12 -4 11 -19 0 -22 -1 -22 -10
-3 -7 15 -8 9 -5 -23 5 -46 11 -60 23 -48 4 4 2 16 -5 26 -7 11 -8 20 -3 20 5
0 11 14 15 32 7 34 -17 69 -42 60 -9 -3 -12 13 -12 55 0 33 3 63 7 67 4 4 6
23 4 42 -2 31 0 34 23 34 30 0 35 16 7 25 -26 8 -45 67 -36 113 3 20 6 53 6
72 0 19 4 39 9 45 5 6 5 17 0 25 -6 8 -10 27 -10 42 0 21 6 29 25 34 14 3 22
10 19 15 -3 5 -10 7 -15 4 -5 -4 -9 -1 -9 4 0 6 -7 11 -15 11 -9 0 -15 9 -15
25 0 28 -15 34 -24 9 -9 -24 -6 -42 4 -19 7 16 9 12 9 -18 1 -23 -3 -36 -9
-32 -5 3 -10 1 -10 -4 0 -6 5 -11 10 -11 6 0 10 -7 10 -16 0 -8 -4 -13 -9 -10
-11 7 -9 -13 3 -32 4 -7 5 -55 1 -106 -5 -65 -4 -96 4 -100 11 -7 15 -48 6
-58 -7 -7 -13 -205 -21 -718 l-6 -406 23 -12 c17 -9 18 -11 4 -7 -41 12 9 -21
72 -48 56 -23 62 -24 66 -9 4 15 5 15 6 -1 1 -15 8 -17 49 -12 44 5 597 50
1167 95 396 31 495 39 745 56 129 8 241 17 248 19 9 4 12 219 12 1034 l-1
1030 -132 3 -132 3 -3 158 c-1 86 -1 157 0 158 2 1 61 3 132 5 270 8 123 14
-328 14 -258 -1 -471 1 -474 4 -3 3 -12 0 -20 -7 -12 -9 -14 -9 -9 0 6 9 -69
12 -325 13 -382 0 -877 9 -897 16 -9 3 -11 -1 -7 -11 3 -9 2 -13 -4 -10 -6 3
-10 -2 -10 -12 0 -10 -4 -25 -9 -32 -6 -10 -8 0 -4 27 l6 42 -49 -1 c-27 -1
-62 -4 -77 -6z m1038 -85 c336 -1 702 -5 815 -8 186 -5 172 -6 -155 -8 -198
-2 -408 -4 -467 -5 -58 -1 -104 1 -102 4 2 4 -198 7 -444 8 -446 2 -448 2
-468 -20 -19 -21 -19 -50 -22 -1191 -1 -778 1 -1167 8 -1163 5 3 7 0 4 -9 -10
-26 33 -39 105 -32 36 3 189 15 339 26 149 11 392 29 540 40 147 11 389 29
537 40 548 41 542 40 529 61 -3 5 0 8 8 7 15 -3 24 496 27 1441 0 288 4 522 7
518 6 -6 6 -1544 -1 -1794 -2 -79 -6 -152 -10 -163 -10 -33 -54 -48 -160 -55
-155 -10 -215 -14 -285 -20 -65 -6 -90 -8 -255 -20 -49 -3 -146 -10 -215 -16
-69 -5 -156 -11 -195 -14 -38 -2 -95 -7 -125 -10 -45 -5 -124 -11 -220 -16 -8
-1 -67 -5 -130 -10 -188 -15 -219 -17 -351 -25 -120 -6 -127 -6 -148 15 l-21
21 0 1171 c0 1081 1 1173 17 1200 21 35 36 39 143 33 47 -2 360 -5 695 -6z
m-982 -33 l33 -6 -2 -187 c-1 -103 1 -224 5 -269 3 -45 4 -80 2 -78 -2 2 -25
-5 -52 -15 -30 -12 -50 -16 -54 -9 -4 5 -11 69 -16 142 -8 116 -7 133 6 144
10 7 12 14 6 17 -6 4 -8 54 -5 139 7 156 8 164 29 143 9 -8 30 -18 48 -21z
m70 -6 c-3 -11 0 -26 7 -34 10 -12 10 -15 0 -15 -10 0 -11 -17 -6 -68 8 -83
10 -642 2 -650 -3 -3 -6 116 -6 265 0 148 -3 332 -6 409 -4 90 -2 134 4 125 5
-7 7 -22 5 -32z m319 -55 c4 -3 8 -18 8 -34 0 -42 14 -44 33 -4 12 25 22 34
35 30 9 -2 32 -7 50 -11 25 -5 32 -12 32 -30 0 -31 -49 -347 -55 -353 -2 -2
-25 -1 -50 2 l-45 7 0 47 c-1 37 -3 43 -11 29 -12 -21 -29 -13 -29 14 0 34
-17 12 -24 -31 -5 -34 -10 -40 -30 -40 -14 0 -36 4 -49 9 -20 8 -24 15 -22 43
6 74 48 324 57 334 8 11 76 3 100 -12z m1136 11 c9 -3 12 -22 10 -62 -3 -52
-5 -58 -28 -63 -25 -6 -25 -7 -28 -123 l-3 -118 -47 3 -47 3 0 115 c0 115 0
115 -25 120 -22 5 -25 11 -28 58 -4 75 3 80 101 75 45 -2 88 -6 95 -8z m-466
-140 c9 -71 17 -155 17 -186 l1 -57 -42 -4 c-24 -3 -45 -3 -47 -2 -2 2 -6 23
-8 48 -5 44 -23 56 -23 15 0 -26 -19 -24 -30 4 -7 17 -9 11 -9 -30 -1 -51 -2
-53 -28 -52 l-28 1 25 8 c30 10 5 12 -28 3 -18 -4 -20 -8 -10 -14 10 -7 9 -9
-4 -9 -19 0 -22 11 -43 175 -21 165 -20 205 4 205 10 0 32 3 48 6 25 5 31 2
47 -33 l19 -38 8 33 c8 40 16 49 49 55 64 12 64 13 82 -128z m839 108 c4 -4 9
-35 12 -67 3 -38 2 -54 -4 -45 -5 8 -9 10 -9 5 0 -6 -5 -5 -12 2 -7 7 -21 12
-33 11 -17 0 -17 -2 5 -10 14 -6 37 -22 53 -36 23 -23 27 -35 27 -79 0 -42 -5
-59 -26 -83 -14 -17 -22 -31 -17 -31 4 0 -1 -7 -11 -15 -21 -16 -83 -20 -104
-7 -14 10 -28 102 -18 127 5 14 8 14 30 -1 24 -15 46 -12 46 6 0 4 -16 17 -35
29 -19 11 -35 16 -35 11 0 -4 5 -11 10 -13 6 -3 5 -4 -2 -3 -16 3 -37 60 -37
101 -1 37 32 92 62 105 24 10 86 6 98 -7z m-622 -78 c95 -49 96 -311 2 -359
-64 -33 -120 -10 -148 61 -25 67 -25 206 1 249 35 59 91 78 145 49z m411 -34
c38 -8 37 0 26 -116 -3 -33 -10 -74 -15 -92 -5 -18 -6 -45 -2 -60 4 -15 3 -45
-2 -66 l-10 -39 -56 7 c-122 14 -121 13 -121 54 1 58 28 310 35 321 6 10 67 6
145 -9z m-1040 -21 c25 0 62 -3 83 -7 l39 -6 -7 -101 c-4 -56 -11 -111 -16
-123 -5 -13 -4 -25 1 -28 12 -7 13 -48 3 -95 l-6 -33 -91 7 c-50 4 -95 11
-100 16 -9 9 8 344 20 373 5 13 10 15 17 8 6 -6 31 -11 57 -11z m1170 -80 c13
-8 13 -10 -2 -10 -9 0 -20 5 -23 10 -8 13 5 13 25 0z m288 -6 c31 -4 56 -13
59 -20 3 -8 1 -35 -4 -62 -7 -41 -11 -47 -33 -47 -24 0 -25 -4 -37 -114 -7
-63 -15 -116 -17 -119 -3 -2 -23 -1 -46 3 l-42 7 6 77 c4 42 9 95 13 119 5 37
3 42 -15 42 -30 0 -37 52 -16 119 3 10 15 12 42 8 20 -3 61 -9 90 -13z m95
-136 c6 -19 -3 -38 -18 -38 -18 0 -28 17 -21 35 7 18 33 20 39 3z m-1033 -195
c0 -26 -12 -40 -35 -45 -17 -2 -21 4 -25 45 -4 35 -3 47 7 47 7 0 13 5 13 11
0 7 9 0 20 -14 11 -14 20 -33 20 -44z m60 48 c0 -6 -5 -13 -11 -17 -8 -4 -7
-9 2 -15 12 -8 12 -10 0 -18 -9 -6 -10 -11 -2 -15 19 -12 12 -28 -11 -24 -16
2 -23 11 -26 37 -2 18 -1 39 2 47 6 16 46 19 46 5z m82 -31 c-6 -51 18 -57 39
-9 25 55 49 44 49 -22 0 -45 -11 -62 -25 -39 -3 5 -12 7 -19 4 -8 -3 -17 -1
-20 4 -3 5 -18 7 -32 4 -25 -4 -26 -3 -21 19 4 13 7 37 7 52 0 19 4 27 13 24
7 -2 11 -17 9 -37z m-1053 9 c29 -10 43 -29 22 -29 -5 0 -7 -9 -4 -20 3 -11 1
-20 -5 -20 -6 0 -8 -9 -5 -20 5 -18 2 -19 -18 -11 -13 4 -23 11 -23 15 14 61
14 80 2 87 -18 12 -7 11 31 -2z m779 -1 c17 -17 15 -77 -3 -84 -35 -14 -62 41
-38 75 16 24 24 26 41 9z m875 -24 c19 -38 15 -57 -8 -47 -8 3 -15 0 -15 -6 0
-6 -4 -11 -10 -11 -5 0 -10 23 -10 50 0 61 18 67 43 14z m-413 4 c0 7 7 12 15
12 11 0 15 -12 15 -50 0 -27 -4 -50 -10 -50 -5 0 -10 8 -10 18 0 14 -2 15 -10
2 -9 -13 -11 -13 -20 0 -6 10 -10 11 -10 3 0 -7 -7 -13 -15 -13 -16 0 -14 24
7 80 9 24 10 24 24 6 8 -11 14 -14 14 -8z m354 -19 c7 -45 -3 -74 -15 -43 -11
27 -11 84 0 84 5 0 11 -18 15 -41z m-889 20 c4 -6 -2 -13 -14 -16 -23 -6 -28
-27 -9 -39 7 -5 8 -3 3 6 -4 7 -2 16 6 21 8 5 17 3 21 -4 11 -17 10 -24 -8
-41 -24 -25 -54 -4 -54 38 0 18 3 36 7 39 10 11 41 8 48 -4z m615 0 c12 -9 13
-12 1 -16 -11 -4 -11 -7 0 -13 10 -7 10 -11 0 -24 -9 -11 -10 -16 -2 -16 6 0
11 -4 11 -10 0 -5 -11 -10 -24 -10 -22 0 -24 3 -20 48 2 26 3 48 4 50 1 5 16
1 30 -9z m236 -25 c1 -17 5 -37 9 -44 6 -10 3 -12 -13 -8 -12 3 -23 1 -25 -6
-7 -19 -14 -3 -20 47 -7 48 -7 48 21 45 23 -2 27 -8 28 -34z m-1487 14 c0 -7
-4 -22 -8 -33 -5 -11 -4 -25 2 -33 14 -17 1 -27 -21 -16 -16 8 -17 15 -10 52
6 26 15 42 24 42 8 0 14 -6 13 -12z m559 -5 c-1 -10 1 -24 5 -30 5 -8 4 -13
-2 -13 -6 0 -11 -4 -11 -10 0 -5 3 -9 8 -7 4 1 9 -2 12 -8 3 -5 -5 -11 -17
-13 -22 -3 -24 -1 -38 70 -1 9 2 19 9 22 24 10 37 5 34 -11z m753 5 c0 -10 2
-10 6 0 2 6 11 12 19 12 10 0 14 -13 14 -45 0 -25 -4 -45 -10 -45 -5 0 -10 6
-10 13 0 8 -4 7 -10 -3 -9 -13 -11 -13 -20 0 -6 10 -10 11 -10 3 0 -7 -4 -13
-10 -13 -11 0 -14 49 -4 74 7 19 34 21 35 4z m110 -12 c14 -29 -4 -69 -29 -64
-24 5 -39 53 -22 72 18 23 39 20 51 -8z m-1303 -13 c2 -8 -5 -13 -17 -13 -12
0 -21 -4 -21 -9 0 -5 9 -7 21 -4 17 5 20 2 17 -17 -4 -32 -32 -48 -52 -31 -31
26 -11 95 26 89 12 -2 23 -9 26 -15z m316 -34 c5 -26 2 -40 -8 -48 -20 -17
-41 -4 -25 15 6 8 9 27 6 43 -6 29 1 47 14 34 3 -5 9 -24 13 -44z m36 16 c0
-19 4 -35 8 -35 4 0 6 16 4 35 -6 47 15 46 24 -1 7 -39 -13 -71 -39 -61 -14 5
-31 73 -21 89 12 19 24 6 24 -27z m-280 11 c8 -10 8 -21 2 -32 -5 -9 -7 -25
-5 -35 4 -15 0 -17 -23 -15 -25 3 -29 8 -32 36 -2 17 -1 38 2 46 7 18 40 18
56 0z m73 -38 c7 -57 5 -64 -15 -52 -7 5 -21 7 -31 6 -15 -3 -17 1 -11 25 22
90 48 100 57 21z m48 30 c0 -10 2 -10 6 0 2 6 11 12 19 12 10 0 14 -13 14 -44
0 -44 -12 -66 -25 -46 -5 8 -11 8 -19 1 -19 -16 -26 -3 -26 46 0 32 4 43 15
43 8 0 15 -6 16 -12z m1461 -75 c7 -16 20 -40 29 -54 18 -25 19 -42 44 -405 3
-53 1 -75 -9 -83 -15 -13 -363 -84 -380 -78 -6 2 22 10 62 17 40 7 75 17 78
21 2 5 12 6 22 3 9 -3 6 1 -7 9 -18 11 -21 16 -10 21 23 10 -69 -5 -178 -29
-95 -20 -104 -21 -118 -5 -11 12 -17 60 -25 181 -5 90 -13 192 -16 226 -3 35
-4 73 0 86 6 27 43 47 86 47 17 0 30 5 30 11 0 5 4 7 10 4 8 -5 299 41 306 48
2 2 17 4 34 5 25 2 32 -3 42 -25z m-810 -74 c123 -34 230 -65 238 -69 8 -5 19
-36 26 -77 11 -68 11 -69 -50 -282 -41 -145 -67 -218 -79 -225 -13 -9 -53 -2
-177 30 -88 22 -160 40 -160 39 0 -1 4 -25 10 -53 7 -38 6 -65 -5 -107 -19
-69 -19 -68 3 -57 9 5 90 24 180 42 123 24 166 29 177 20 9 -8 15 -51 20 -140
4 -72 10 -130 14 -130 4 0 5 -18 3 -40 -3 -34 -2 -39 12 -34 9 3 16 10 16 16
0 5 -4 6 -10 3 -5 -3 -10 -1 -10 5 0 7 6 10 13 8 19 -7 32 -237 14 -255 -7 -8
-85 -29 -173 -48 -158 -34 -210 -42 -166 -25 27 12 29 24 2 17 -34 -9 -22 12
13 22 57 17 2 12 -98 -9 -119 -25 -142 -25 -153 -2 -9 17 -21 181 -25 340 l-2
84 -34 -6 c-18 -3 -35 -6 -36 -8 -2 -2 -31 -95 -65 -208 -34 -112 -66 -210
-72 -217 -6 -7 -21 -13 -33 -13 -38 0 -496 107 -507 118 -11 11 -17 54 -8 62
3 3 17 43 32 90 14 47 47 150 72 230 40 129 48 146 68 147 12 1 78 -12 146
-28 68 -17 130 -28 138 -25 8 3 14 2 14 -3 0 -5 9 -11 21 -14 18 -5 20 -2 15
16 -15 50 -17 84 -8 125 7 30 7 42 -2 42 -6 0 -85 -13 -176 -30 -91 -16 -174
-30 -185 -30 -11 0 -35 18 -54 41 -30 37 -34 49 -38 113 -2 39 -8 132 -13 206
-15 206 -14 237 10 250 24 13 496 92 524 88 10 -2 24 -12 30 -23 6 -10 21 -36
34 -58 20 -33 24 -60 34 -210 6 -95 14 -176 18 -180 8 -9 42 2 36 12 -3 4 20
90 49 192 30 101 60 202 66 224 16 53 36 85 54 85 7 0 114 -27 237 -61z
m-1215 -31 c-3 -8 -6 -5 -6 6 -1 11 2 17 5 13 3 -3 4 -12 1 -19z m1604 -525
c13 -16 12 -17 -3 -4 -17 13 -22 21 -14 21 2 0 10 -8 17 -17z m69 -3 c-14 -4
-32 -8 -40 -9 -13 -1 -13 0 0 9 8 5 26 9 40 9 l25 -1 -25 -8z m199 -110 c108
-28 206 -55 219 -60 26 -11 28 -41 7 -120 -17 -64 -20 -114 -5 -105 12 7 12
-11 1 -40 -8 -19 -8 -19 -16 4 -5 17 -9 20 -15 11 -6 -10 -14 -7 -31 9 -13 12
-39 31 -56 42 -27 17 -33 27 -33 56 0 47 -32 97 -74 117 -43 20 -59 20 -103 0
-56 -27 -110 -124 -68 -124 8 0 15 5 15 11 0 7 16 27 35 45 43 43 83 45 124 7
31 -29 52 -83 32 -83 -6 0 -11 9 -11 20 0 51 -81 89 -123 58 -27 -21 -47 -69
-36 -89 14 -27 11 -38 -16 -65 -19 -19 -23 -29 -16 -38 7 -9 7 -24 1 -47 -12
-38 -15 -138 -5 -168 6 -19 4 -19 -74 1 -59 15 -78 24 -74 34 3 8 0 14 -6 14
-18 0 -12 20 7 21 9 1 2 6 -16 12 -21 6 -34 18 -38 33 -5 21 41 202 97 378 11
33 19 65 19 72 0 18 28 44 47 44 9 0 104 -23 212 -50z m-1959 -166 c0 18 15
22 25 6 9 -15 -5 -140 -16 -140 -5 0 -9 7 -9 15 0 8 -13 28 -30 45 -45 46 -40
104 6 73 22 -14 24 -14 24 1z m1940 -45 c14 -25 3 -41 -11 -16 -12 21 -42 22
-58 3 -18 -22 -22 -74 -5 -80 16 -6 19 -36 4 -36 -14 0 -30 44 -30 81 0 58 76
94 100 48z m33 -58 c-3 -11 -15 -22 -28 -25 -13 -3 -29 -8 -37 -11 -9 -4 -14
2 -15 15 -1 11 2 18 8 15 5 -4 9 -1 9 6 0 8 5 7 17 -2 9 -8 14 -9 10 -2 -4 6
-1 14 5 16 26 11 36 7 31 -12z m42 9 c4 -6 10 -8 15 -5 15 10 59 -25 53 -41
-6 -16 -29 -13 -26 4 1 5 -7 8 -17 5 -11 -3 -20 0 -20 6 0 5 -6 8 -14 5 -16
-6 -30 11 -21 26 8 13 22 13 30 0z m38 -70 c45 -39 61 -79 55 -140 -3 -27 -2
-47 2 -45 4 3 13 -1 19 -9 8 -10 8 -16 -3 -25 -11 -9 -16 -9 -23 1 -6 10 -19
2 -49 -29 -32 -33 -37 -42 -21 -40 28 3 32 -20 6 -34 -17 -9 -24 -9 -27 0 -2
6 -8 11 -13 11 -4 0 -6 -7 -3 -15 5 -12 -2 -15 -32 -15 -48 0 -67 11 -58 33 5
13 10 14 25 6 10 -5 19 -6 19 -2 0 4 7 -2 16 -13 8 -10 13 -14 10 -7 -4 6 2
16 11 22 15 8 11 10 -20 11 -55 0 -92 23 -116 73 -27 56 -27 103 2 158 48 90
136 116 200 59z m-2023 -1 c0 -5 -4 -9 -10 -9 -5 0 -10 7 -10 16 0 8 5 12 10
9 6 -3 10 -10 10 -16z m2090 -4 c0 -8 -5 -17 -11 -21 -16 -9 -30 18 -17 33 12
15 28 8 28 -12z m-2114 -17 c20 -39 23 -133 5 -166 -28 -53 -69 5 -70 100 -2
93 33 127 65 66z m1854 7 c0 -1 -7 -16 -15 -33 -10 -20 -21 -29 -30 -25 -8 3
-15 9 -15 14 0 4 7 6 16 2 13 -5 15 -2 10 15 -9 27 0 43 19 35 8 -3 15 -6 15
-8z m280 -19 c0 -15 -24 -28 -34 -19 -7 7 13 33 25 33 5 0 9 -6 9 -14z m-527
-146 c3 -11 1 -18 -4 -14 -5 3 -9 12 -9 20 0 20 7 17 13 -6z m227 -44 c0 -8
13 -25 29 -38 22 -19 26 -29 19 -41 -8 -15 -12 -14 -38 10 -17 14 -28 29 -25
31 3 3 -3 10 -12 17 -9 7 -13 17 -9 23 10 17 36 15 36 -2z m267 -14 c8 -5 8
-12 -2 -26 -8 -10 -18 -15 -24 -11 -7 4 -8 -1 -4 -12 6 -16 5 -16 -10 -4 -21
17 -5 43 21 34 15 -6 15 -5 3 10 -14 17 -5 23 16 9z m-2107 -43 c0 18 20 2 30
-23 4 -12 3 -26 -2 -33 -7 -9 -6 -14 4 -18 9 -4 15 -20 16 -39 1 -19 2 -38 4
-42 1 -5 -1 -26 -6 -47 -6 -34 -9 -37 -24 -25 -15 11 -15 11 -4 -3 7 -9 10
-24 6 -33 -8 -20 -24 -21 -24 -2 0 18 -31 30 -40 16 -4 -6 -12 1 -19 16 -15
34 -25 184 -12 184 6 0 8 6 5 14 -3 8 -1 24 6 35 10 20 12 20 35 5 17 -11 25
-12 25 -5z m85 -298 c-2 -35 -15 -36 -15 -2 0 18 4 30 8 27 5 -3 8 -14 7 -25z"/>
<path d="M1039 2688 c-6 -90 -3 -113 11 -113 8 0 20 -6 25 -13 7 -8 10 9 10
57 0 38 -3 67 -7 65 -3 -2 -14 3 -22 12 -15 14 -16 13 -17 -8z m29 -38 c0 -21
-4 -30 -15 -30 -13 0 -13 3 -3 15 10 12 10 15 0 15 -10 0 -10 3 0 15 17 20 17
20 18 -15z m0 -52 c-2 -6 -10 -14 -16 -16 -7 -2 -10 2 -6 12 7 18 28 22 22 4z"/>
<path d="M1059 2408 c0 -22 -1 -22 -9 -3 -6 13 -8 -3 -7 -50 0 -53 2 -59 4
-22 2 26 8 45 14 42 5 -4 9 8 9 24 0 35 -10 43 -11 9z"/>
<path d="M1078 2369 c-22 -23 -23 -33 -4 -26 9 4 17 -1 19 -11 3 -9 5 0 6 21
0 20 0 37 -1 36 -2 0 -11 -9 -20 -20z"/>
<path d="M2075 2681 c-26 -5 -31 -12 -39 -54 -4 -26 -12 -47 -17 -47 -5 0 -19
21 -31 46 -18 36 -26 44 -43 40 -11 -3 -26 -6 -34 -6 -11 0 -12 -15 -7 -77 4
-43 13 -103 20 -133 12 -47 14 -50 15 -22 1 32 2 33 19 16 16 -17 17 -16 20
24 2 23 6 42 10 42 4 0 17 -17 30 -38 13 -20 21 -29 18 -20 -3 10 -1 20 4 23
6 4 10 15 10 26 0 31 23 17 32 -19 6 -23 13 -30 24 -25 9 3 20 0 26 -8 6 -9 8
14 3 69 -8 111 -16 172 -24 171 -3 -1 -19 -4 -36 -8z"/>
<path d="M2096 2342 c-3 -5 8 -6 25 -4 16 2 29 6 29 8 0 8 -49 4 -54 -4z"/>
<path d="M2879 2651 c-20 -20 -29 -39 -29 -61 0 -34 46 -90 74 -90 8 0 22 -10
30 -22 9 -12 16 -18 16 -12 0 5 -5 15 -12 22 -9 9 -6 12 15 12 19 0 27 -5 27
-17 0 -9 3 -14 6 -10 16 16 -9 58 -45 77 -49 25 -58 38 -38 58 13 13 21 13 41
4 25 -11 25 -10 19 21 -11 56 -57 64 -104 18z"/>
<path d="M2883 2338 c7 -4 26 -8 42 -8 17 0 35 4 42 8 6 4 -13 7 -42 7 -29 0
-48 -3 -42 -7z"/>
<path d="M2304 2465 c-7 -17 1 -83 11 -93 13 -13 26 19 23 58 -3 44 -23 65
-34 35z"/>
<path d="M1673 2183 c9 -2 23 -2 30 0 6 3 -1 5 -18 5 -16 0 -22 -2 -12 -5z"/>
<path d="M2220 2136 c0 -9 5 -16 10 -16 6 0 10 4 10 9 0 6 -4 13 -10 16 -5 3
-10 -1 -10 -9z"/>
<path d="M2100 2121 c0 -12 5 -21 10 -21 6 0 10 6 10 14 0 8 -4 18 -10 21 -5
3 -10 -3 -10 -14z"/>
<path d="M2812 2095 c0 -16 2 -22 5 -12 2 9 2 23 0 30 -3 6 -5 -1 -5 -18z"/>
<path d="M3210 1909 c0 -5 5 -7 10 -4 6 3 10 8 10 11 0 2 -4 4 -10 4 -5 0 -10
-5 -10 -11z"/>
<path d="M2902 1881 c-51 -10 -87 -22 -91 -31 -5 -8 -11 -51 -15 -94 -5 -66
-3 -82 11 -98 23 -25 50 -23 96 9 40 28 78 33 142 18 23 -5 37 -2 55 13 l25
20 -20 77 c-20 82 -44 129 -45 88 0 -29 -35 -31 -58 -4 -16 18 -20 18 -100 2z"/>
<path d="M3211 1874 c0 -11 3 -14 6 -6 3 7 2 16 -1 19 -3 4 -6 -2 -5 -13z"/>
<path d="M3212 1820 c0 -19 2 -27 5 -17 2 9 2 25 0 35 -3 9 -5 1 -5 -18z"/>
<path d="M3043 1660 c-23 -10 -29 -34 -14 -58 10 -16 81 -6 81 12 -1 51 -21
65 -67 46z"/>
<path d="M2968 1643 c10 -4 10 -8 1 -19 -9 -11 -9 -14 1 -14 10 0 10 -3 1 -14
-9 -10 -9 -16 -1 -21 8 -5 8 -11 0 -20 -8 -9 -4 -11 16 -7 24 4 25 7 19 46 -9
51 -12 56 -33 55 -11 0 -13 -2 -4 -6z"/>
<path d="M2848 1623 c-12 -3 -18 -14 -18 -33 0 -35 9 -42 49 -34 27 6 31 11
31 40 0 35 -12 40 -62 27z"/>
<path d="M1716 1804 c-21 -21 -20 -42 5 -100 20 -44 21 -54 10 -99 -17 -69
-16 -97 5 -112 22 -16 36 -16 57 0 31 24 31 60 -2 101 -36 45 -39 78 -11 113
50 64 -9 153 -64 97z"/>
<path d="M1570 1766 c0 -19 5 -38 11 -42 7 -4 8 -26 4 -64 -5 -39 -3 -60 5
-65 8 -5 9 -27 5 -71 -4 -35 -3 -64 1 -63 23 2 49 17 49 30 1 8 4 30 9 49 5
24 3 44 -7 63 -11 22 -12 36 -4 62 7 25 7 42 -4 67 -8 18 -14 40 -14 48 0 9
-11 16 -27 18 -26 3 -28 1 -28 -32z"/>
<path d="M2200 1761 c0 -5 8 -12 17 -15 14 -6 15 -9 4 -16 -8 -4 -12 -17 -9
-28 5 -18 1 -20 -36 -19 -35 2 -41 -1 -44 -20 -2 -14 3 -23 15 -27 134 -40
278 -76 289 -72 24 9 15 36 -16 54 -16 9 -30 21 -30 25 0 5 5 5 12 1 8 -5 9
-2 4 11 -4 11 -2 22 6 27 9 5 8 8 -5 8 -11 0 -17 5 -14 13 2 6 10 11 16 10 6
-2 11 2 11 7 0 20 -31 9 -42 -15 -7 -16 -17 -24 -27 -21 -59 18 -68 17 -74 -3
-3 -14 -10 -18 -26 -14 -19 5 -20 7 -7 22 10 11 12 21 6 32 -8 13 -5 15 15 11
20 -3 24 -1 19 11 -8 22 -84 39 -84 18z"/>
<path d="M1466 1671 c-4 -5 -2 -12 3 -15 5 -4 12 -2 15 3 4 5 2 12 -3 15 -5 4
-12 2 -15 -3z"/>
<path d="M1421 1621 c-9 -6 -10 -10 -2 -16 9 -5 9 -10 1 -20 -8 -9 -7 -14 4
-18 18 -7 39 16 34 39 -4 21 -18 27 -37 15z"/>
<path d="M2130 1600 c0 -10 7 -20 15 -24 8 -3 15 -13 15 -22 0 -16 11 -16 52
1 13 5 21 0 29 -19 14 -29 21 -31 50 -13 17 10 22 9 39 -13 15 -20 21 -23 31
-12 7 6 21 12 30 12 9 0 22 6 28 14 9 11 6 15 -16 20 -16 3 -83 21 -150 39
-111 31 -123 32 -123 17z"/>
<path d="M2100 1540 c2 -14 71 -48 90 -43 12 3 28 -1 39 -11 12 -11 27 -15 43
-11 16 4 31 1 40 -9 22 -21 98 -19 97 3 0 10 -2 11 -6 4 -3 -10 -13 -9 -41 3
-20 9 -45 16 -55 16 -10 -1 -15 4 -11 10 4 7 2 8 -5 4 -16 -10 -73 3 -65 15 3
6 -5 8 -20 5 -28 -5 -68 3 -62 13 2 3 -7 6 -20 6 -13 0 -24 -2 -24 -5z"/>
<path d="M1674 1508 l-19 -23 23 19 c21 18 27 26 19 26 -2 0 -12 -10 -23 -22z"/>
<path d="M1947 1393 c3 -38 9 -71 15 -74 11 -7 0 -56 -15 -66 -5 -3 -16 2 -23
11 -8 12 -19 16 -33 11 -26 -8 -39 18 -21 40 18 21 10 25 -33 18 -22 -3 -42
-14 -48 -25 -15 -27 -7 -44 12 -26 17 17 47 10 68 -16 7 -9 22 -16 32 -16 9 0
24 -6 31 -12 20 -19 38 -20 44 -3 4 10 15 13 40 9 46 -7 71 10 84 56 11 41 26
49 49 28 11 -11 13 -10 7 5 -3 10 -6 21 -6 23 0 2 -6 4 -12 4 -7 0 -25 7 -41
14 l-27 15 6 -38 c5 -31 2 -43 -15 -60 -31 -31 -87 -28 -74 5 3 9 13 12 29 8
15 -4 24 -2 24 5 0 6 -13 11 -30 11 -23 0 -31 5 -36 24 -3 14 -3 29 0 35 4 5
1 21 -6 36 -10 22 -9 28 3 36 11 7 9 9 -8 9 -20 0 -21 -3 -16 -67z"/>
<path d="M2015 1369 c-10 -15 3 -25 16 -12 7 7 7 13 1 17 -6 3 -14 1 -17 -5z"/>
<path d="M1906 1331 c-4 -7 -5 -15 -2 -18 9 -9 19 4 14 18 -4 11 -6 11 -12 0z"/>
<path d="M2074 1222 c9 -14 -2 -20 -49 -25 -22 -3 -49 -9 -60 -13 -18 -7 -18
-6 -6 9 7 9 9 17 5 17 -5 0 -15 -9 -21 -20 -13 -20 -4 -33 19 -26 7 3 32 7 56
10 24 3 48 8 53 12 6 3 17 -2 25 -12 12 -17 13 -17 8 -1 -4 11 -1 17 10 17 19
0 22 -40 4 -41 -7 0 -22 -3 -33 -5 -44 -10 -65 -11 -65 -3 0 16 -18 9 -23 -8
-4 -17 -5 -17 -6 0 0 9 -5 17 -11 17 -5 0 -7 -7 -4 -15 5 -11 -1 -15 -22 -16
-16 0 -38 -5 -49 -10 -21 -9 67 -6 112 4 11 3 41 8 65 12 65 10 75 18 60 50
-9 20 -18 26 -32 22 -13 -3 -20 0 -20 8 0 8 -5 17 -12 21 -6 4 -8 3 -4 -4z"/>
<path d="M1907 1187 c-4 -11 -12 -15 -19 -11 -7 4 -10 4 -6 -1 4 -4 3 -14 -4
-22 -8 -11 -7 -12 5 -7 8 3 17 0 20 -8 2 -7 3 -5 2 4 -2 9 2 19 7 20 6 2 9 13
6 23 -3 19 -4 19 -11 2z"/>
<path d="M2055 1160 c-3 -5 -1 -10 4 -10 6 0 11 5 11 10 0 6 -2 10 -4 10 -3 0
-8 -4 -11 -10z"/>
<path d="M1860 1105 c-8 -9 -8 -15 -2 -15 12 0 26 19 19 26 -2 2 -10 -2 -17
-11z"/>
<path d="M2375 1090 c-3 -4 -23 -11 -45 -15 -37 -6 -40 -9 -40 -41 0 -35 -24
-57 -58 -52 -21 4 -28 -44 -13 -85 8 -21 17 -27 40 -27 16 0 33 5 36 10 4 6
14 10 23 9 36 -3 52 2 52 16 0 8 -6 15 -13 15 -12 0 -14 46 -7 140 0 8 7 0 15
-17 10 -25 20 -33 39 -33 30 0 61 37 45 56 -14 17 -67 35 -74 24z m-35 -40 c0
-5 -2 -10 -4 -10 -3 0 -8 5 -11 10 -3 6 -1 10 4 10 6 0 11 -4 11 -10z"/>
<path d="M1960 1050 c0 -11 6 -20 14 -20 24 0 26 15 5 28 -16 11 -19 9 -19 -8z"/>
<path d="M1640 1031 c-13 -25 -13 -71 0 -71 6 0 10 7 10 16 0 14 3 14 15 4 13
-11 19 -9 37 10 l21 23 -31 -5 c-31 -4 -42 4 -22 17 15 9 12 25 -5 25 -8 0
-19 -9 -25 -19z"/>
<path d="M1545 1022 c-58 -20 -95 -66 -95 -120 0 -39 44 -146 73 -179 33 -37
86 -31 157 18 83 56 100 81 100 141 0 42 -5 54 -30 80 l-31 30 -25 -28 -26
-27 23 -18 24 -19 -22 0 c-12 0 -26 6 -30 13 -4 8 -16 16 -26 20 -15 6 -16 4
-6 -14 8 -16 8 -20 -1 -14 -7 4 -10 2 -8 -7 2 -7 -1 -13 -7 -13 -5 0 -10 14
-11 30 0 17 -4 38 -8 48 -8 16 -9 16 -26 -3 -10 -12 -21 -17 -24 -12 -7 12 16
32 44 37 32 6 35 12 19 32 -12 14 -12 16 0 8 10 -5 12 -4 7 3 -9 15 -10 15
-71 -6z"/>
<path d="M2115 951 c-6 -20 3 -51 15 -51 12 0 19 26 13 49 -7 26 -20 27 -28 2z"/>
<path d="M2355 940 c3 -5 8 -10 11 -10 2 0 4 5 4 10 0 6 -5 10 -11 10 -5 0 -7
-4 -4 -10z"/>
<path d="M2164 925 c-3 -8 -3 -19 0 -24 9 -13 36 -2 36 14 0 19 -30 27 -36 10z"/>
<path d="M2127 883 c-10 -10 -8 -66 3 -83 9 -13 12 -12 25 4 18 23 19 40 5 67
-11 20 -22 24 -33 12z"/>
<path d="M2324 836 c-17 -13 -15 -14 19 -6 47 10 59 20 26 20 -14 0 -34 -6
-45 -14z"/>
<path d="M2197 834 c-16 -16 -6 -35 16 -32 12 2 22 10 22 18 0 16 -26 25 -38
14z"/>
<path d="M2318 809 c-24 -14 -23 -36 3 -49 26 -14 74 13 65 37 -3 8 -6 17 -6
19 0 8 -45 3 -62 -7z"/>
<path d="M2404 789 c-10 -12 -19 -31 -19 -44 -1 -21 0 -22 22 -8 15 10 23 25
23 44 0 35 -1 35 -26 8z"/>
<path d="M2160 749 c-10 -17 -9 -24 4 -37 21 -22 51 -4 51 29 0 33 -39 39 -55
8z"/>
<path d="M2245 729 c-4 -6 -4 -13 -1 -16 8 -8 36 5 36 17 0 13 -27 13 -35 -1z"/>
<path d="M2328 703 c7 -3 16 -2 19 1 4 3 -2 6 -13 5 -11 0 -14 -3 -6 -6z"/>
<path d="M2800 925 c0 -14 5 -35 10 -46 9 -16 14 -17 32 -8 15 8 17 13 8 19
-7 4 -10 17 -7 29 3 12 1 21 -3 21 -5 0 -15 3 -24 6 -12 5 -16 0 -16 -21z"/>
<path d="M3080 899 c0 -5 5 -9 10 -9 6 0 15 -10 20 -22 7 -19 9 -19 9 -5 1 10
5 16 10 12 5 -3 12 -2 15 3 2 4 -11 12 -30 18 -19 6 -34 7 -34 3z"/>
<path d="M3020 890 l-35 -7 43 -2 c23 0 42 4 42 9 0 6 -3 9 -7 9 -5 -1 -24 -5
-43 -9z"/>
<path d="M3055 809 c-16 -4 -39 -6 -52 -3 -16 4 -25 1 -30 -12 -4 -10 -2 -19
5 -22 7 -2 10 -13 7 -25 -6 -21 -3 -22 50 -19 54 4 56 5 51 27 -3 13 -2 27 4
30 12 7 14 35 3 34 -5 0 -21 -5 -38 -10z"/>
<path d="M2983 695 c0 -11 13 -14 54 -13 68 2 65 22 -4 25 -38 2 -50 -1 -50
-12z"/>
<path d="M1049 783 c12 -24 31 -39 31 -25 0 5 -10 17 -21 28 -22 19 -22 19
-10 -3z"/>
<path d="M1052 580 c0 -14 2 -19 5 -12 2 6 2 18 0 25 -3 6 -5 1 -5 -13z"/>
<path d="M1043 530 c-1 -11 2 -20 8 -20 5 0 9 9 9 20 0 11 -4 20 -8 20 -4 0
-8 -9 -9 -20z"/>
<path d="M3250 2733 c-13 -15 -12 -16 4 -10 10 4 20 7 22 7 2 0 4 5 4 10 0 15
-13 12 -30 -7z"/>
<path d="M3326 2725 c-3 -8 -1 -15 4 -15 6 0 10 7 10 15 0 8 -2 15 -4 15 -2 0
-6 -7 -10 -15z"/>
<path d="M3203 2708 c-18 -24 -24 -38 -16 -38 10 0 36 40 30 46 -2 3 -9 -1
-14 -8z"/>
<path d="M3322 2645 c-5 -9 -24 -20 -43 -25 l-34 -8 31 -1 c30 -1 75 32 62 45
-4 3 -10 -2 -16 -11z"/>
<path d="M1068 1823 c-26 -4 -41 -33 -18 -33 6 0 10 5 10 10 0 17 28 11 33 -7
3 -11 5 -7 6 10 0 15 0 26 -1 26 -2 -1 -15 -4 -30 -6z"/>
<path d="M1093 1728 c1 -8 -8 -12 -25 -11 -19 1 -28 -3 -28 -14 0 -10 6 -13
16 -9 9 3 24 6 35 6 12 0 19 7 19 20 0 11 -4 20 -10 20 -5 0 -9 -6 -7 -12z"/>
<path d="M1050 1590 c0 -5 5 -10 11 -10 5 0 7 5 4 10 -3 6 -8 10 -11 10 -2 0
-4 -4 -4 -10z"/>
<path d="M1060 1390 c19 -13 30 -13 30 0 0 6 -10 10 -22 10 -19 0 -20 -2 -8
-10z"/>
<path d="M1090 1211 c5 -11 10 -30 10 -42 0 -12 3 -20 6 -16 10 9 -5 77 -17
77 -6 0 -6 -7 1 -19z"/>
</g>
</svg>
