<?xml version="1.0" standalone="no"?>
<!DOCTYPE svg PUBLIC "-//W3C//DTD SVG 20010904//EN"
 "http://www.w3.org/TR/2001/REC-SVG-20010904/DTD/svg10.dtd">
<svg version="1.0" xmlns="http://www.w3.org/2000/svg"
 width="1280.000000pt" height="520.000000pt" viewBox="0 0 1280.000000 520.000000"
 preserveAspectRatio="xMidYMid meet">

<g transform="translate(0.000000,520.000000) scale(0.100000,-0.100000)"
fill="#000000" stroke="none">
<path d="M6023 4900 c-101 -20 -222 -104 -278 -193 l-27 -42 -63 3 c-158 9
-317 -78 -402 -220 -60 -100 -63 -126 -63 -604 l0 -432 -62 26 c-116 47 -266
41 -387 -15 -77 -37 -181 -139 -219 -215 -72 -149 -66 -332 16 -462 63 -101
766 -1027 812 -1070 58 -54 150 -101 229 -116 33 -6 315 -10 740 -10 733 0
744 1 841 50 61 31 147 122 176 185 18 38 42 142 76 318 27 144 63 332 80 417
l32 155 3 554 c3 380 0 570 -7 607 -35 168 -181 312 -350 344 -29 5 -67 10
-85 10 l-32 0 -6 68 c-11 125 -69 233 -174 318 -74 61 -148 86 -262 90 l-93 3
-27 43 c-93 147 -285 224 -468 188z m175 -246 c49 -20 90 -60 113 -109 17 -38
19 -78 19 -677 l0 -638 30 0 30 0 0 515 c0 444 2 521 16 553 60 145 248 176
351 59 18 -20 37 -53 42 -74 7 -24 11 -222 11 -545 l0 -508 30 0 30 0 0 278
c0 248 2 281 19 317 60 129 222 165 328 72 74 -65 73 -50 73 -627 l0 -516 -30
-164 c-69 -370 -81 -438 -96 -515 -8 -44 -18 -96 -21 -115 -7 -43 -35 -99 -60
-122 -53 -48 -48 -48 -770 -48 -442 0 -691 4 -716 11 -21 5 -54 24 -74 42 -34
30 -721 937 -778 1028 -32 50 -42 126 -25 189 16 60 100 144 162 160 51 14
134 8 174 -13 47 -24 68 -49 222 -255 l147 -196 5 764 c5 841 2 790 67 852
103 98 275 64 334 -67 17 -37 19 -77 19 -557 l0 -518 30 0 30 0 0 635 c0 552
2 641 16 673 44 107 168 160 272 116z"/>
<path d="M9500 4509 c-91 -15 -189 -70 -260 -146 -107 -114 -150 -248 -129
-401 21 -147 134 -306 259 -364 30 -14 71 -32 90 -41 34 -15 31 -16 -111 -16
-173 -1 -242 -18 -338 -82 -274 -183 -281 -597 -13 -789 113 -81 129 -84 472
-90 l305 -5 -3 -60 c-8 -163 70 -321 201 -409 54 -35 54 -36 60 -96 4 -33 20
-94 37 -134 64 -152 188 -245 360 -267 116 -16 527 -6 643 15 165 30 812 196
867 223 66 32 164 128 202 199 57 105 58 117 58 869 0 750 0 746 -56 857 -50
98 -172 200 -289 241 -19 7 -199 13 -475 17 l-445 5 -400 154 c-741 284 -811
310 -876 320 -72 12 -82 12 -159 0z m385 -329 c127 -48 408 -156 626 -239 355
-136 402 -151 457 -151 34 0 62 -2 62 -4 0 -5 -132 -133 -186 -180 -22 -19
-54 -59 -70 -88 l-29 -53 -3 -225 -4 -225 -215 -98 -216 -97 -539 0 c-589 0
-571 -2 -642 60 -56 50 -80 103 -79 180 0 78 24 131 79 180 71 62 43 60 739
60 l635 0 0 64 0 63 -192 71 c-500 183 -842 319 -879 350 -53 45 -79 104 -79
180 0 74 19 124 63 170 56 59 126 85 202 75 22 -3 144 -45 270 -93z m1908
-406 c54 -18 115 -73 142 -129 19 -38 20 -68 23 -709 2 -584 1 -675 -13 -723
-19 -65 -73 -129 -130 -154 -80 -36 -759 -198 -873 -209 -136 -13 -269 -13
-257 -1 6 5 138 68 295 140 157 72 303 143 325 159 23 16 53 52 70 83 26 47
30 64 30 134 0 69 -4 86 -27 127 -35 58 -100 115 -150 130 l-37 11 35 41 c56
65 64 111 64 353 l0 213 -29 0 -30 0 -3 -227 -3 -228 -28 -48 c-15 -26 -47
-60 -69 -75 -36 -24 -51 -27 -119 -27 -71 0 -80 2 -116 31 -92 74 -96 97 -91
499 3 250 5 284 22 318 10 21 82 97 162 172 l143 135 309 0 c255 0 316 -3 355
-16z m-1018 -1051 c28 -55 82 -105 138 -125 15 -6 27 -13 27 -16 0 -4 -147
-74 -328 -156 -371 -169 -390 -174 -476 -132 -75 37 -109 89 -114 177 -4 72
14 124 61 167 13 13 166 87 338 166 l314 143 7 -84 c5 -62 14 -100 33 -140z
m456 -169 c38 -19 95 -86 109 -129 26 -79 -6 -179 -73 -229 -18 -13 -102 -55
-187 -94 -85 -39 -244 -111 -354 -161 -169 -78 -206 -91 -250 -91 -156 0 -252
160 -183 302 34 69 68 91 327 208 113 51 248 113 300 137 102 48 153 69 185
76 29 6 96 -4 126 -19z"/>
<path d="M1820 4104 c-56 -15 -149 -65 -176 -95 -13 -15 -20 -15 -82 2 -255
71 -510 -84 -564 -343 l-12 -58 -41 0 c-110 0 -233 -58 -315 -147 -108 -118
-120 -169 -120 -513 0 -404 -2 -398 305 -693 115 -111 255 -246 311 -300 l102
-98 6 -59 c14 -118 100 -238 206 -289 l55 -26 695 0 695 0 48 22 c53 25 137
99 167 148 32 52 50 124 50 201 0 57 23 161 117 535 l117 464 4 323 c4 345 0
383 -44 476 -79 166 -247 265 -436 254 l-83 -5 -43 48 c-122 136 -337 178
-506 98 l-44 -20 -54 30 c-104 59 -242 76 -358 45z m201 -236 c51 -15 114 -69
141 -122 19 -36 23 -61 26 -193 l4 -153 29 0 29 0 0 140 c0 105 4 150 16 178
60 145 253 177 351 58 44 -53 53 -97 53 -245 l0 -131 30 0 c29 0 30 1 30 53 1
193 232 290 362 151 55 -59 58 -78 58 -392 l0 -288 -66 -265 c-36 -145 -88
-354 -115 -464 -34 -136 -53 -234 -58 -304 -8 -103 -8 -105 -44 -138 l-37 -33
-640 0 -640 0 -36 33 c-32 29 -36 40 -44 104 -5 40 -18 90 -29 112 -13 24
-142 155 -337 342 -223 213 -323 316 -335 344 -16 35 -19 70 -19 293 0 275 4
298 58 356 82 87 230 86 305 -4 52 -61 57 -87 57 -284 l0 -182 30 -29 30 -29
0 425 c0 391 2 427 19 464 10 22 31 52 47 67 106 99 274 65 335 -67 15 -31 19
-64 19 -152 l0 -113 30 0 30 0 0 144 c0 122 3 151 20 188 53 119 169 173 291
136z"/>
<path d="M1400 975 c0 -7 6 -15 13 -18 6 -2 -5 -11 -25 -20 -21 -9 -38 -22
-38 -29 1 -22 36 -89 43 -81 11 11 8 -7 -8 -40 -16 -36 -36 -176 -26 -192 3
-5 4 -18 2 -29 -3 -19 14 -36 35 -36 20 0 38 54 35 106 l-3 51 69 34 c58 29
73 42 100 89 18 30 33 50 33 45 0 -6 4 -4 8 2 13 21 1 83 -18 93 -9 5 -52 11
-94 12 -42 2 -76 7 -76 13 0 6 -11 11 -25 11 -15 1 -25 -4 -25 -11z m149 -113
c-6 -10 -30 -30 -53 -45 -22 -15 -36 -27 -30 -27 7 0 36 16 65 35 l54 35 -38
-34 c-22 -19 -52 -39 -67 -45 l-28 -9 4 41 c4 49 24 67 71 67 29 0 32 -2 22
-18z"/>
<path d="M2862 983 c-24 -5 -47 -47 -38 -70 3 -7 1 -13 -4 -13 -11 0 -26 -48
-21 -69 1 -7 -2 -10 -8 -6 -11 6 -16 -12 -13 -50 2 -14 0 -16 -6 -7 -11 16
-68 -123 -64 -155 1 -13 1 -23 -1 -23 -7 0 -97 128 -97 139 0 6 6 11 14 11 16
0 80 69 72 78 -3 3 -16 -3 -27 -14 -19 -16 -18 -13 4 21 33 51 26 90 -23 123
-43 29 -105 29 -164 0 -40 -19 -44 -24 -34 -42 6 -11 17 -27 25 -34 15 -16 17
-38 3 -47 -5 -3 -6 -13 -3 -22 4 -10 2 -14 -4 -10 -6 4 -17 -23 -27 -69 -19
-88 -20 -108 -5 -135 8 -16 14 -18 24 -9 10 8 14 8 18 -2 9 -25 20 2 26 66 4
36 10 68 13 71 3 3 21 -20 40 -52 19 -32 41 -57 47 -55 7 1 10 -1 7 -6 -8 -13
18 -45 63 -76 34 -24 43 -26 56 -16 12 10 13 16 3 28 -11 13 -11 14 2 7 11 -6
10 -3 -2 12 -20 22 -23 39 -7 48 6 4 9 0 7 -11 -2 -13 3 -19 17 -19 14 0 24
12 36 45 16 44 46 70 81 70 9 0 19 4 23 9 3 6 -11 8 -32 6 -46 -4 -24 10 31
19 35 7 38 6 34 -12 -3 -10 -1 -28 5 -38 6 -10 12 -39 12 -62 1 -24 7 -47 13
-51 6 -3 13 -18 17 -32 5 -20 12 -25 25 -22 17 4 18 17 18 126 0 118 1 121 24
130 21 9 21 10 4 15 -33 7 -45 28 -66 112 -10 46 -21 84 -23 87 -8 7 -71 11
-95 6z m-231 -77 c38 -1 2 -63 -54 -93 -16 -8 -31 -12 -34 -9 -9 8 17 100 30
108 7 4 19 5 27 1 8 -3 22 -6 31 -7z m278 -94 c1 -12 -6 -25 -15 -29 -13 -5
-13 -7 -2 -14 10 -7 9 -9 -3 -9 -32 0 -37 23 -17 70 18 39 21 42 28 25 5 -11
9 -30 9 -43z m98 -214 c-3 -8 -6 -5 -6 6 -1 11 2 17 5 13 3 -3 4 -12 1 -19z"/>
<path d="M5700 975 c0 -7 6 -15 13 -18 6 -2 -5 -11 -25 -20 -21 -9 -38 -22
-38 -29 1 -22 36 -89 43 -81 11 11 8 -7 -8 -40 -16 -36 -36 -176 -26 -192 3
-5 4 -18 2 -29 -3 -19 14 -36 35 -36 20 0 38 54 35 106 l-3 51 69 34 c58 29
73 42 100 89 18 30 33 50 33 45 0 -6 4 -4 8 2 13 21 1 83 -18 93 -9 5 -52 11
-94 12 -42 2 -76 7 -76 13 0 6 -11 11 -25 11 -15 1 -25 -4 -25 -11z m149 -113
c-6 -10 -30 -30 -53 -45 -22 -15 -36 -27 -30 -27 7 0 36 16 65 35 l54 35 -38
-34 c-22 -19 -52 -39 -67 -45 l-28 -9 4 41 c4 49 24 67 71 67 29 0 32 -2 22
-18z"/>
<path d="M6088 983 c-25 -4 -32 -17 -43 -73 0 -3 -7 -16 -14 -29 -7 -12 -11
-32 -8 -42 3 -10 2 -17 -2 -14 -9 5 -20 -16 -61 -121 -22 -55 -27 -77 -20
-105 4 -19 8 -26 9 -17 1 9 5 19 10 22 5 4 7 -3 4 -14 -4 -15 0 -20 15 -20 14
0 25 14 40 50 13 31 30 53 44 59 51 20 72 31 58 30 -33 -3 -44 3 -20 11 52 17
62 13 55 -21 -5 -20 -3 -29 3 -25 5 3 14 -12 20 -34 5 -22 6 -37 1 -34 -5 3
-9 -7 -9 -23 0 -21 3 -24 9 -14 7 11 11 5 16 -22 8 -39 19 -54 30 -37 4 6 10
8 14 6 4 -3 6 51 5 120 -2 115 -1 124 16 124 10 0 22 5 25 10 3 6 -4 10 -17
10 -31 0 -42 21 -63 117 -17 77 -19 81 -47 87 -17 3 -33 5 -37 5 -3 -1 -18 -4
-33 -6z m47 -155 c6 -24 3 -35 -9 -44 -13 -9 -14 -13 -4 -17 7 -3 3 -6 -9 -6
-32 -1 -36 14 -17 64 18 50 29 50 39 3z m-65 -8 c0 -5 -5 -10 -11 -10 -5 0 -7
5 -4 10 3 6 8 10 11 10 2 0 4 -4 4 -10z"/>
<path d="M6350 978 c0 -4 5 -10 11 -14 8 -4 -2 -14 -25 -26 -39 -20 -49 -55
-21 -78 8 -7 15 -19 15 -27 0 -8 5 -11 10 -8 14 9 12 -5 -4 -37 -28 -54 -39
-234 -14 -249 36 -23 58 13 58 97 l0 55 44 19 c55 23 120 80 136 120 7 16 16
28 20 25 12 -7 16 12 12 51 -5 44 -21 52 -115 55 -45 2 -77 8 -77 14 0 5 -11
10 -25 10 -14 0 -25 -3 -25 -7z m149 -116 c-6 -10 -30 -30 -53 -45 -22 -15
-36 -27 -30 -27 7 0 36 16 65 35 l54 35 -38 -34 c-22 -19 -51 -39 -66 -44 -26
-9 -28 -8 -26 17 1 14 3 36 3 48 2 23 17 30 70 32 29 1 31 -1 21 -17z"/>
<path d="M11798 983 c-19 -3 -30 -13 -37 -35 -6 -17 -8 -34 -5 -39 3 -5 1 -9
-5 -9 -6 0 -13 -17 -17 -37 -4 -21 -10 -40 -14 -43 -19 -12 -81 -184 -76 -206
10 -39 -6 -27 -56 41 -51 69 -57 85 -32 85 18 0 74 56 74 73 0 7 -4 7 -12 -1
-24 -24 -29 -11 -7 19 19 27 20 35 10 69 -20 68 -117 91 -205 48 -41 -19 -43
-23 -33 -45 5 -12 18 -23 29 -23 10 0 18 -5 18 -11 0 -5 -5 -7 -10 -4 -7 4 -9
-2 -4 -19 4 -16 2 -26 -5 -26 -6 0 -8 -7 -4 -17 4 -10 2 -14 -4 -10 -6 4 -15
-22 -22 -66 -7 -40 -14 -83 -16 -97 -3 -14 2 -34 11 -45 13 -17 16 -18 24 -5
7 10 10 11 10 3 0 -7 4 -13 9 -13 10 0 15 22 26 103 3 26 9 47 13 47 4 0 20
-24 35 -54 26 -50 134 -166 154 -166 19 1 35 18 27 31 -4 7 -9 29 -10 49 -1
19 0 25 3 13 8 -39 33 -26 56 27 15 37 28 52 51 60 52 20 72 30 56 29 -33 -3
-44 3 -20 11 52 17 62 13 55 -21 -5 -22 -4 -29 4 -25 7 5 11 -1 11 -14 0 -12
5 -31 12 -43 11 -21 10 -21 -7 -7 -17 14 -18 13 -12 -3 4 -10 7 -25 7 -33 0
-9 4 -13 9 -9 6 3 13 -10 17 -30 6 -35 17 -44 29 -25 4 6 10 8 14 5 5 -2 6 9
2 25 -3 17 -5 72 -3 124 3 86 5 95 25 101 l22 8 -22 4 c-26 5 -47 48 -64 131
-10 52 -16 65 -36 73 -13 5 -30 8 -36 8 -7 -1 -24 -4 -39 -6z m-230 -87 c7 -7
10 -19 7 -27 -6 -16 -96 -81 -103 -74 -7 7 20 110 32 117 13 9 46 0 64 -16z
m274 -103 c-2 -7 -12 -13 -21 -13 -14 0 -14 -2 -1 -10 13 -8 12 -10 -3 -10
-27 0 -31 25 -11 77 l18 48 12 -40 c6 -22 9 -46 6 -52z m-71 20 c-12 -20 -14
-14 -5 12 4 9 9 14 11 11 3 -2 0 -13 -6 -23z"/>
<path d="M10453 971 c-97 -6 -106 -10 -108 -41 -2 -18 5 -20 69 -22 l71 -1
-55 -7 c-45 -6 -49 -7 -20 -10 19 -1 43 -2 53 -1 19 2 20 -7 8 -64 -17 -77
-22 -147 -11 -140 5 3 10 -1 10 -9 0 -10 -6 -13 -17 -9 -16 5 -17 4 -2 -11 16
-17 15 -81 -1 -71 -5 3 -6 15 -4 28 4 20 4 20 -4 2 -10 -22 6 -98 18 -90 5 3
11 1 15 -5 14 -22 20 -7 16 41 -1 28 1 55 7 61 6 6 8 -5 5 -35 -4 -30 -1 -47
7 -52 10 -6 11 -1 6 18 -6 25 23 236 45 323 11 42 12 43 63 51 35 6 51 13 51
23 0 8 5 18 10 22 11 8 -89 8 -232 -1z"/>
<path d="M10981 898 c-23 -157 -33 -207 -47 -225 -13 -16 -13 -15 -4 11 6 16
8 31 6 33 -3 3 -10 -15 -17 -39 -17 -59 -29 -70 -29 -26 0 59 -22 93 -33 51
-4 -17 -5 -17 -6 0 -1 19 -18 22 -40 8 -10 -6 -14 -25 -13 -57 2 -27 -3 -51
-9 -55 -8 -4 -5 -9 9 -13 11 -4 22 -16 25 -26 4 -17 14 -20 55 -20 95 0 122
46 157 270 20 125 20 164 0 156 -8 -3 -15 -1 -15 4 0 6 -6 10 -14 10 -10 0
-17 -25 -25 -82z"/>
<path d="M1721 961 c-9 -6 -14 -28 -14 -66 0 -37 -3 -52 -9 -43 -6 8 -8 -1 -6
-29 2 -23 0 -39 -4 -37 -10 6 -16 -25 -22 -113 -3 -44 -1 -75 5 -79 6 -3 9
-14 6 -24 -4 -17 10 -30 32 -30 18 0 33 61 37 146 3 50 13 127 24 170 17 72
17 81 3 97 -18 19 -31 21 -52 8z"/>
<path d="M1840 929 c0 -22 -4 -48 -10 -58 -5 -10 -10 -45 -11 -77 -1 -33 -6
-67 -11 -78 -7 -13 -7 -16 1 -12 6 4 11 3 11 -3 0 -5 -6 -12 -12 -14 -10 -4
-9 -8 2 -16 12 -9 12 -13 3 -19 -7 -4 -16 -22 -19 -40 -9 -44 6 -47 138 -28
112 16 143 25 97 27 -21 1 -20 2 6 8 22 4 31 13 33 30 l4 24 -111 -7 c-101 -6
-132 0 -102 19 5 3 12 18 16 34 6 26 10 29 63 33 31 3 74 13 95 22 36 14 37
17 22 32 -13 13 -28 15 -81 9 l-65 -7 3 34 c3 32 5 33 53 39 l50 6 -50 2 c-73
2 -36 21 42 21 53 0 64 3 74 21 17 33 -2 39 -128 39 l-113 0 0 -41z m17 -231
c-3 -8 -6 -5 -6 6 -1 11 2 17 5 13 3 -3 4 -12 1 -19z"/>
<path d="M2131 921 c-16 -72 -20 -100 -31 -195 -8 -78 -7 -92 7 -108 13 -15
14 -20 2 -35 -8 -9 -9 -14 -2 -10 6 4 14 1 17 -5 5 -10 7 -10 12 0 4 9 10 10
18 3 17 -15 100 8 159 42 87 51 120 121 98 204 -24 90 -94 141 -199 147 l-71
3 -10 -46z m201 -58 c23 -21 23 -72 1 -117 -15 -27 -29 -38 -78 -55 -75 -27
-83 -26 -79 2 18 133 28 183 38 190 17 12 97 -1 118 -20z m-195 -15 c-3 -8 -6
-5 -6 6 -1 11 2 17 5 13 3 -3 4 -12 1 -19z m-10 -60 c-3 -8 -6 -5 -6 6 -1 11
2 17 5 13 3 -3 4 -12 1 -19z m244 -15 c-12 -20 -14 -14 -5 12 4 9 9 14 11 11
3 -2 0 -13 -6 -23z m-124 -149 c-3 -3 -12 -4 -19 -1 -8 3 -5 6 6 6 11 1 17 -2
13 -5z m-57 -14 c0 -5 -5 -10 -11 -10 -5 0 -7 5 -4 10 3 6 8 10 11 10 2 0 4
-4 4 -10z"/>
<path d="M6649 943 c-3 -44 -5 -57 -12 -73 -3 -8 -9 -42 -12 -75 -3 -33 -8
-75 -11 -92 -4 -21 -2 -33 5 -33 6 0 11 -5 11 -11 0 -5 -4 -8 -9 -5 -10 6 -21
-26 -21 -61 0 -28 12 -29 152 -8 103 16 131 24 87 26 -21 1 -20 2 6 8 22 4 31
13 33 30 l4 24 -115 -7 -114 -7 21 44 c20 43 23 44 76 49 30 3 72 13 93 22 36
14 37 17 23 32 -14 13 -29 15 -88 9 -64 -7 -70 -6 -65 10 4 9 7 25 7 36 0 16
8 19 53 21 l52 1 -50 6 c-63 8 -37 21 40 21 55 0 82 17 71 45 -4 12 -27 15
-121 15 l-115 0 -1 -27z"/>
<path d="M6956 962 c-2 -4 -8 -41 -12 -82 -6 -55 -9 -68 -15 -50 -6 22 -7 21
-7 -10 -1 -19 -5 -70 -9 -113 -6 -51 -5 -81 2 -88 7 -8 6 -13 -2 -16 -16 -6
-16 -13 1 -36 13 -16 17 -16 77 7 35 13 99 32 142 42 74 17 85 27 42 37 -11 3
-4 5 18 6 38 1 50 15 19 23 -9 3 -46 1 -82 -3 -36 -5 -81 -6 -100 -3 -28 3
-31 2 -15 -6 l20 -10 -20 3 c-23 3 -24 11 -11 180 8 97 7 107 -8 101 -11 -4
-16 -1 -16 10 0 17 -15 22 -24 8z m-26 -259 c-10 -16 -11 -14 -6 7 3 14 7 41
8 60 1 32 2 32 5 -7 2 -24 -1 -51 -7 -60z"/>
<path d="M10712 962 c-7 -5 -13 -32 -15 -64 -1 -31 -5 -54 -8 -52 -11 6 -17
-33 -8 -47 5 -8 8 -23 8 -34 0 -19 -1 -19 -8 -1 -4 11 -10 15 -13 10 -9 -14
-12 -166 -5 -186 4 -10 9 -25 12 -33 7 -24 31 -17 45 13 7 15 13 29 12 32 -4
22 20 220 33 270 15 58 15 63 -1 81 -18 21 -32 23 -52 11z"/>
<path d="M11101 901 c-6 -36 -13 -82 -15 -101 -3 -19 -8 -56 -11 -81 -5 -30
-3 -49 4 -53 8 -5 6 -12 -4 -22 -8 -9 -15 -29 -15 -45 0 -35 6 -36 152 -14
103 16 132 24 87 26 -20 1 -19 2 9 10 23 7 32 15 32 31 0 20 -2 21 -115 14
-77 -5 -115 -3 -115 4 0 5 4 10 9 10 5 0 14 15 21 34 10 32 13 34 70 39 67 7
147 37 118 44 -10 3 -18 9 -18 15 0 7 -25 8 -72 3 -64 -7 -70 -6 -65 10 4 9 7
25 7 36 0 16 8 19 53 21 l52 1 -50 6 c-63 8 -37 21 40 21 56 0 82 17 71 45 -5
13 -25 16 -120 14 l-115 -1 -10 -67z"/>
<path d="M1898 733 c6 -2 18 -2 25 0 6 3 1 5 -13 5 -14 0 -19 -2 -12 -5z"/>
<path d="M6708 733 c6 -2 18 -2 25 0 6 3 1 5 -13 5 -14 0 -19 -2 -12 -5z"/>
<path d="M11168 733 c6 -2 18 -2 25 0 6 3 1 5 -13 5 -14 0 -19 -2 -12 -5z"/>
<path d="M7120 700 c-21 -7 -21 -8 -5 -9 11 0 27 4 35 9 18 11 5 11 -30 0z"/>
<path d="M7058 683 c6 -2 18 -2 25 0 6 3 1 5 -13 5 -14 0 -19 -2 -12 -5z"/>
</g>
</svg>
